<svg width="1260" height="178" viewBox="0 0 1260 178" fill="none" xmlns="http://www.w3.org/2000/svg">
<rect width="1260" height="178" fill="white"/>
<g clip-path="url(#clip0_15_1660)">
<path d="M49.8457 21.2012C48.9043 21.2012 48.1602 21.5156 47.6133 22.1445C47.0703 22.7695 46.7988 23.627 46.7988 24.7168C46.7988 25.8379 47.0605 26.7051 47.584 27.3184C48.1113 27.9277 48.8613 28.2324 49.834 28.2324C50.4316 28.2324 51.1133 28.125 51.8789 27.9102V28.7832C51.2852 29.0059 50.5527 29.1172 49.6816 29.1172C48.4199 29.1172 47.4453 28.7344 46.7578 27.9688C46.0742 27.2031 45.7324 26.1152 45.7324 24.7051C45.7324 23.8223 45.8965 23.0488 46.2246 22.3848C46.5566 21.7207 47.0332 21.209 47.6543 20.8496C48.2793 20.4902 49.0137 20.3105 49.8574 20.3105C50.7559 20.3105 51.541 20.4746 52.2129 20.8027L51.791 21.6582C51.1426 21.3535 50.4941 21.2012 49.8457 21.2012ZM57.9961 29V24.8457C57.9961 24.3223 57.877 23.9316 57.6387 23.6738C57.4004 23.416 57.0273 23.2871 56.5195 23.2871C55.8438 23.2871 55.3496 23.4707 55.0371 23.8379C54.7285 24.2051 54.5742 24.8066 54.5742 25.6426V29H53.6016V19.8828H54.5742V22.6426C54.5742 22.9746 54.5586 23.25 54.5273 23.4688H54.5859C54.7773 23.1602 55.0488 22.918 55.4004 22.7422C55.7559 22.5625 56.1602 22.4727 56.6133 22.4727C57.3984 22.4727 57.9863 22.6602 58.377 23.0352C58.7715 23.4062 58.9688 23.998 58.9688 24.8105V29H57.9961ZM64.9219 29L64.7285 28.0859H64.6816C64.3613 28.4883 64.041 28.7617 63.7207 28.9062C63.4043 29.0469 63.0078 29.1172 62.5312 29.1172C61.8945 29.1172 61.3945 28.9531 61.0312 28.625C60.6719 28.2969 60.4922 27.8301 60.4922 27.2246C60.4922 25.9277 61.5293 25.248 63.6035 25.1855L64.6934 25.1504V24.752C64.6934 24.248 64.584 23.877 64.3652 23.6387C64.1504 23.3965 63.8047 23.2754 63.3281 23.2754C62.793 23.2754 62.1875 23.4395 61.5117 23.7676L61.2129 23.0234C61.5293 22.8516 61.875 22.7168 62.25 22.6191C62.6289 22.5215 63.0078 22.4727 63.3867 22.4727C64.1523 22.4727 64.7188 22.6426 65.0859 22.9824C65.457 23.3223 65.6426 23.8672 65.6426 24.6172V29H64.9219ZM62.7246 28.3145C63.3301 28.3145 63.8047 28.1484 64.1484 27.8164C64.4961 27.4844 64.6699 27.0195 64.6699 26.4219V25.8418L63.6973 25.8828C62.9238 25.9102 62.3652 26.0312 62.0215 26.2461C61.6816 26.457 61.5117 26.7871 61.5117 27.2363C61.5117 27.5879 61.6172 27.8555 61.8281 28.0391C62.043 28.2227 62.3418 28.3145 62.7246 28.3145ZM69.7266 28.3145C69.8984 28.3145 70.0645 28.3027 70.2246 28.2793C70.3848 28.252 70.5117 28.2246 70.6055 28.1973V28.9414C70.5 28.9922 70.3438 29.0332 70.1367 29.0645C69.9336 29.0996 69.75 29.1172 69.5859 29.1172C68.3438 29.1172 67.7227 28.4629 67.7227 27.1543V23.334H66.8027V22.8652L67.7227 22.4609L68.1328 21.0898H68.6953V22.5781H70.5586V23.334H68.6953V27.1133C68.6953 27.5 68.7871 27.7969 68.9707 28.0039C69.1543 28.2109 69.4062 28.3145 69.7266 28.3145ZM80.2559 29L79.0781 25.2324C79.0039 25.002 78.8652 24.4785 78.6621 23.6621H78.6152C78.459 24.3457 78.3223 24.873 78.2051 25.2441L76.9922 29H75.8672L74.1152 22.5781H75.1348C75.5488 24.1914 75.8633 25.4199 76.0781 26.2637C76.2969 27.1074 76.4219 27.6758 76.4531 27.9688H76.5C76.543 27.7461 76.6113 27.459 76.7051 27.1074C76.8027 26.752 76.8867 26.4707 76.957 26.2637L78.1348 22.5781H79.1895L80.3379 26.2637C80.5566 26.9355 80.7051 27.5 80.7832 27.957H80.8301C80.8457 27.8164 80.8867 27.5996 80.9531 27.3066C81.0234 27.0137 81.4316 25.4375 82.1777 22.5781H83.1855L81.4102 29H80.2559ZM85.3242 29H84.3516V22.5781H85.3242V29ZM84.2695 20.8379C84.2695 20.6152 84.3242 20.4531 84.4336 20.3516C84.543 20.2461 84.6797 20.1934 84.8438 20.1934C85 20.1934 85.1348 20.2461 85.248 20.3516C85.3613 20.457 85.418 20.6191 85.418 20.8379C85.418 21.0566 85.3613 21.2207 85.248 21.3301C85.1348 21.4355 85 21.4883 84.8438 21.4883C84.6797 21.4883 84.543 21.4355 84.4336 21.3301C84.3242 21.2207 84.2695 21.0566 84.2695 20.8379ZM89.4609 28.3145C89.6328 28.3145 89.7988 28.3027 89.959 28.2793C90.1191 28.252 90.2461 28.2246 90.3398 28.1973V28.9414C90.2344 28.9922 90.0781 29.0332 89.8711 29.0645C89.668 29.0996 89.4844 29.1172 89.3203 29.1172C88.0781 29.1172 87.457 28.4629 87.457 27.1543V23.334H86.5371V22.8652L87.457 22.4609L87.8672 21.0898H88.4297V22.5781H90.293V23.334H88.4297V27.1133C88.4297 27.5 88.5215 27.7969 88.7051 28.0039C88.8887 28.2109 89.1406 28.3145 89.4609 28.3145ZM96.0234 29V24.8457C96.0234 24.3223 95.9043 23.9316 95.666 23.6738C95.4277 23.416 95.0547 23.2871 94.5469 23.2871C93.8711 23.2871 93.377 23.4707 93.0645 23.8379C92.7559 24.2051 92.6016 24.8066 92.6016 25.6426V29H91.6289V19.8828H92.6016V22.6426C92.6016 22.9746 92.5859 23.25 92.5547 23.4688H92.6133C92.8047 23.1602 93.0762 22.918 93.4277 22.7422C93.7832 22.5625 94.1875 22.4727 94.6406 22.4727C95.4258 22.4727 96.0137 22.6602 96.4043 23.0352C96.7988 23.4062 96.9961 23.998 96.9961 24.8105V29H96.0234ZM103.031 22.5781V26.7441C103.031 27.2676 103.15 27.6582 103.389 27.916C103.627 28.1738 104 28.3027 104.508 28.3027C105.18 28.3027 105.67 28.1191 105.979 27.752C106.291 27.3848 106.447 26.7852 106.447 25.9531V22.5781H107.42V29H106.617L106.477 28.1387H106.424C106.225 28.4551 105.947 28.6973 105.592 28.8652C105.24 29.0332 104.838 29.1172 104.385 29.1172C103.604 29.1172 103.018 28.9316 102.627 28.5605C102.24 28.1895 102.047 27.5957 102.047 26.7793V22.5781H103.031ZM113.631 27.248C113.631 27.8457 113.408 28.3066 112.963 28.6309C112.518 28.9551 111.893 29.1172 111.088 29.1172C110.236 29.1172 109.572 28.9824 109.096 28.7129V27.8105C109.404 27.9668 109.734 28.0898 110.086 28.1797C110.441 28.2695 110.783 28.3145 111.111 28.3145C111.619 28.3145 112.01 28.2344 112.283 28.0742C112.557 27.9102 112.693 27.6621 112.693 27.3301C112.693 27.0801 112.584 26.8672 112.365 26.6914C112.15 26.5117 111.729 26.3008 111.1 26.0586C110.502 25.8359 110.076 25.6426 109.822 25.4785C109.572 25.3105 109.385 25.1211 109.26 24.9102C109.139 24.6992 109.078 24.4473 109.078 24.1543C109.078 23.6309 109.291 23.2188 109.717 22.918C110.143 22.6133 110.727 22.4609 111.469 22.4609C112.16 22.4609 112.836 22.6016 113.496 22.8828L113.15 23.6738C112.506 23.4082 111.922 23.2754 111.398 23.2754C110.938 23.2754 110.59 23.3477 110.355 23.4922C110.121 23.6367 110.004 23.8359 110.004 24.0898C110.004 24.2617 110.047 24.4082 110.133 24.5293C110.223 24.6504 110.365 24.7656 110.561 24.875C110.756 24.9844 111.131 25.1426 111.686 25.3496C112.447 25.627 112.961 25.9062 113.227 26.1875C113.496 26.4688 113.631 26.8223 113.631 27.248Z" fill="#6A983C"/>
<path d="M151.826 24.3652H154.24V25.1738H151.826V27.6699H151.012V25.1738H148.609V24.3652H151.012V21.8574H151.826V24.3652ZM161.488 27.0312H160.217V29H159.285V27.0312H155.119V26.1816L159.186 20.3867H160.217V26.1465H161.488V27.0312ZM159.285 26.1465V23.2988C159.285 22.7402 159.305 22.1094 159.344 21.4062H159.297C159.109 21.7812 158.934 22.0918 158.77 22.3379L156.092 26.1465H159.285ZM167.951 29H162.32V28.1621L164.576 25.8945C165.264 25.1992 165.717 24.7031 165.936 24.4062C166.154 24.1094 166.318 23.8203 166.428 23.5391C166.537 23.2578 166.592 22.9551 166.592 22.6309C166.592 22.1738 166.453 21.8125 166.176 21.5469C165.898 21.2773 165.514 21.1426 165.021 21.1426C164.666 21.1426 164.328 21.2012 164.008 21.3184C163.691 21.4355 163.338 21.6484 162.947 21.957L162.432 21.2949C163.221 20.6387 164.08 20.3105 165.01 20.3105C165.814 20.3105 166.445 20.5176 166.902 20.9316C167.359 21.3418 167.588 21.8945 167.588 22.5898C167.588 23.1328 167.436 23.6699 167.131 24.2012C166.826 24.7324 166.256 25.4043 165.42 26.2168L163.545 28.0508V28.0977H167.951V29ZM174.865 24.7051C174.865 26.1855 174.631 27.291 174.162 28.0215C173.697 28.752 172.984 29.1172 172.023 29.1172C171.102 29.1172 170.4 28.7441 169.92 27.998C169.439 27.248 169.199 26.1504 169.199 24.7051C169.199 23.2129 169.432 22.1055 169.896 21.3828C170.361 20.6602 171.07 20.2988 172.023 20.2988C172.953 20.2988 173.658 20.6758 174.139 21.4297C174.623 22.1836 174.865 23.2754 174.865 24.7051ZM170.184 24.7051C170.184 25.9512 170.33 26.8594 170.623 27.4297C170.916 27.9961 171.383 28.2793 172.023 28.2793C172.672 28.2793 173.141 27.9922 173.43 27.418C173.723 26.8398 173.869 25.9355 173.869 24.7051C173.869 23.4746 173.723 22.5742 173.43 22.0039C173.141 21.4297 172.672 21.1426 172.023 21.1426C171.383 21.1426 170.916 21.4258 170.623 21.9922C170.33 22.5547 170.184 23.459 170.184 24.7051ZM184.48 22.4492C184.48 22.9961 184.326 23.4434 184.018 23.791C183.713 24.1387 183.279 24.3711 182.717 24.4883V24.5352C183.404 24.6211 183.914 24.8398 184.246 25.1914C184.578 25.543 184.744 26.0039 184.744 26.5742C184.744 27.3906 184.461 28.0195 183.895 28.4609C183.328 28.8984 182.523 29.1172 181.48 29.1172C181.027 29.1172 180.611 29.082 180.232 29.0117C179.857 28.9453 179.492 28.8262 179.137 28.6543V27.7285C179.508 27.9121 179.902 28.0527 180.32 28.1504C180.742 28.2441 181.141 28.291 181.516 28.291C182.996 28.291 183.736 27.7109 183.736 26.5508C183.736 25.5117 182.92 24.9922 181.287 24.9922H180.443V24.1543H181.299C181.967 24.1543 182.496 24.0078 182.887 23.7148C183.277 23.418 183.473 23.0078 183.473 22.4844C183.473 22.0664 183.328 21.7383 183.039 21.5C182.754 21.2617 182.365 21.1426 181.873 21.1426C181.498 21.1426 181.145 21.1934 180.812 21.2949C180.48 21.3965 180.102 21.584 179.676 21.8574L179.184 21.2012C179.535 20.9238 179.939 20.707 180.396 20.5508C180.857 20.3906 181.342 20.3105 181.85 20.3105C182.682 20.3105 183.328 20.502 183.789 20.8848C184.25 21.2637 184.48 21.7852 184.48 22.4492ZM191.348 22.4492C191.348 22.9961 191.193 23.4434 190.885 23.791C190.58 24.1387 190.146 24.3711 189.584 24.4883V24.5352C190.271 24.6211 190.781 24.8398 191.113 25.1914C191.445 25.543 191.611 26.0039 191.611 26.5742C191.611 27.3906 191.328 28.0195 190.762 28.4609C190.195 28.8984 189.391 29.1172 188.348 29.1172C187.895 29.1172 187.479 29.082 187.1 29.0117C186.725 28.9453 186.359 28.8262 186.004 28.6543V27.7285C186.375 27.9121 186.77 28.0527 187.188 28.1504C187.609 28.2441 188.008 28.291 188.383 28.291C189.863 28.291 190.604 27.7109 190.604 26.5508C190.604 25.5117 189.787 24.9922 188.154 24.9922H187.311V24.1543H188.166C188.834 24.1543 189.363 24.0078 189.754 23.7148C190.145 23.418 190.34 23.0078 190.34 22.4844C190.34 22.0664 190.195 21.7383 189.906 21.5C189.621 21.2617 189.232 21.1426 188.74 21.1426C188.365 21.1426 188.012 21.1934 187.68 21.2949C187.348 21.3965 186.969 21.584 186.543 21.8574L186.051 21.2012C186.402 20.9238 186.807 20.707 187.264 20.5508C187.725 20.3906 188.209 20.3105 188.717 20.3105C189.549 20.3105 190.195 20.502 190.656 20.8848C191.117 21.2637 191.348 21.7852 191.348 22.4492ZM193.006 25.3379C193.006 23.6543 193.332 22.3965 193.984 21.5645C194.641 20.7285 195.609 20.3105 196.891 20.3105C197.332 20.3105 197.68 20.3477 197.934 20.4219V21.2598C197.633 21.1621 197.289 21.1133 196.902 21.1133C195.984 21.1133 195.283 21.4004 194.799 21.9746C194.314 22.5449 194.049 23.4434 194.002 24.6699H194.072C194.502 23.998 195.182 23.6621 196.111 23.6621C196.881 23.6621 197.486 23.8945 197.928 24.3594C198.373 24.8242 198.596 25.4551 198.596 26.252C198.596 27.1426 198.352 27.8438 197.863 28.3555C197.379 28.8633 196.723 29.1172 195.895 29.1172C195.008 29.1172 194.305 28.7852 193.785 28.1211C193.266 27.4531 193.006 26.5254 193.006 25.3379ZM195.883 28.291C196.438 28.291 196.867 28.1172 197.172 27.7695C197.48 27.418 197.635 26.9121 197.635 26.252C197.635 25.6855 197.492 25.2402 197.207 24.916C196.922 24.5918 196.496 24.4297 195.93 24.4297C195.578 24.4297 195.256 24.502 194.963 24.6465C194.67 24.791 194.436 24.9902 194.26 25.2441C194.088 25.498 194.002 25.7617 194.002 26.0352C194.002 26.4375 194.08 26.8125 194.236 27.1602C194.393 27.5078 194.613 27.7832 194.898 27.9863C195.188 28.1895 195.516 28.291 195.883 28.291ZM203.975 29L207.525 21.3301H202.855V20.4336H208.557V21.2129L205.053 29H203.975ZM210.842 29L214.393 21.3301H209.723V20.4336H215.424V21.2129L211.92 29H210.842ZM219.303 23.7676C220.205 23.7676 220.914 23.9922 221.43 24.4414C221.949 24.8867 222.209 25.498 222.209 26.2754C222.209 27.1621 221.926 27.8574 221.359 28.3613C220.797 28.8652 220.02 29.1172 219.027 29.1172C218.062 29.1172 217.326 28.9629 216.818 28.6543V27.7168C217.092 27.8926 217.432 28.0312 217.838 28.1328C218.244 28.2305 218.645 28.2793 219.039 28.2793C219.727 28.2793 220.26 28.1172 220.639 27.793C221.021 27.4688 221.213 27 221.213 26.3867C221.213 25.1914 220.48 24.5938 219.016 24.5938C218.645 24.5938 218.148 24.6504 217.527 24.7637L217.023 24.4414L217.346 20.4336H221.605V21.3301H218.178L217.961 23.9023C218.41 23.8125 218.857 23.7676 219.303 23.7676ZM226.709 25.3379C226.709 23.6543 227.035 22.3965 227.688 21.5645C228.344 20.7285 229.312 20.3105 230.594 20.3105C231.035 20.3105 231.383 20.3477 231.637 20.4219V21.2598C231.336 21.1621 230.992 21.1133 230.605 21.1133C229.688 21.1133 228.986 21.4004 228.502 21.9746C228.018 22.5449 227.752 23.4434 227.705 24.6699H227.775C228.205 23.998 228.885 23.6621 229.814 23.6621C230.584 23.6621 231.189 23.8945 231.631 24.3594C232.076 24.8242 232.299 25.4551 232.299 26.252C232.299 27.1426 232.055 27.8438 231.566 28.3555C231.082 28.8633 230.426 29.1172 229.598 29.1172C228.711 29.1172 228.008 28.7852 227.488 28.1211C226.969 27.4531 226.709 26.5254 226.709 25.3379ZM229.586 28.291C230.141 28.291 230.57 28.1172 230.875 27.7695C231.184 27.418 231.338 26.9121 231.338 26.252C231.338 25.6855 231.195 25.2402 230.91 24.916C230.625 24.5918 230.199 24.4297 229.633 24.4297C229.281 24.4297 228.959 24.502 228.666 24.6465C228.373 24.791 228.139 24.9902 227.963 25.2441C227.791 25.498 227.705 25.7617 227.705 26.0352C227.705 26.4375 227.783 26.8125 227.939 27.1602C228.096 27.5078 228.316 27.7832 228.602 27.9863C228.891 28.1895 229.219 28.291 229.586 28.291ZM233.576 25.3379C233.576 23.6543 233.902 22.3965 234.555 21.5645C235.211 20.7285 236.18 20.3105 237.461 20.3105C237.902 20.3105 238.25 20.3477 238.504 20.4219V21.2598C238.203 21.1621 237.859 21.1133 237.473 21.1133C236.555 21.1133 235.854 21.4004 235.369 21.9746C234.885 22.5449 234.619 23.4434 234.572 24.6699H234.643C235.072 23.998 235.752 23.6621 236.682 23.6621C237.451 23.6621 238.057 23.8945 238.498 24.3594C238.943 24.8242 239.166 25.4551 239.166 26.252C239.166 27.1426 238.922 27.8438 238.434 28.3555C237.949 28.8633 237.293 29.1172 236.465 29.1172C235.578 29.1172 234.875 28.7852 234.355 28.1211C233.836 27.4531 233.576 26.5254 233.576 25.3379ZM236.453 28.291C237.008 28.291 237.438 28.1172 237.742 27.7695C238.051 27.418 238.205 26.9121 238.205 26.252C238.205 25.6855 238.062 25.2402 237.777 24.916C237.492 24.5918 237.066 24.4297 236.5 24.4297C236.148 24.4297 235.826 24.502 235.533 24.6465C235.24 24.791 235.006 24.9902 234.83 25.2441C234.658 25.498 234.572 25.7617 234.572 26.0352C234.572 26.4375 234.65 26.8125 234.807 27.1602C234.963 27.5078 235.184 27.7832 235.469 27.9863C235.758 28.1895 236.086 28.291 236.453 28.291ZM246.379 27.0312H245.107V29H244.176V27.0312H240.01V26.1816L244.076 20.3867H245.107V26.1465H246.379V27.0312ZM244.176 26.1465V23.2988C244.176 22.7402 244.195 22.1094 244.234 21.4062H244.188C244 21.7812 243.824 22.0918 243.66 22.3379L240.982 26.1465H244.176Z" fill="#151515"/>
<path d="M282.004 29H281.031V22.5781H282.004V29ZM280.949 20.8379C280.949 20.6152 281.004 20.4531 281.113 20.3516C281.223 20.2461 281.359 20.1934 281.523 20.1934C281.68 20.1934 281.814 20.2461 281.928 20.3516C282.041 20.457 282.098 20.6191 282.098 20.8379C282.098 21.0566 282.041 21.2207 281.928 21.3301C281.814 21.4355 281.68 21.4883 281.523 21.4883C281.359 21.4883 281.223 21.4355 281.113 21.3301C281.004 21.2207 280.949 21.0566 280.949 20.8379ZM288.461 29V24.8457C288.461 24.3223 288.342 23.9316 288.104 23.6738C287.865 23.416 287.492 23.2871 286.984 23.2871C286.312 23.2871 285.82 23.4688 285.508 23.832C285.195 24.1953 285.039 24.7949 285.039 25.6309V29H284.066V22.5781H284.857L285.016 23.457H285.062C285.262 23.1406 285.541 22.8965 285.9 22.7246C286.26 22.5488 286.66 22.4609 287.102 22.4609C287.875 22.4609 288.457 22.6484 288.848 23.0234C289.238 23.3945 289.434 23.9902 289.434 24.8105V29H288.461ZM294.332 23.334H292.697V29H291.725V23.334H290.576V22.8945L291.725 22.543V22.1855C291.725 20.6074 292.414 19.8184 293.793 19.8184C294.133 19.8184 294.531 19.8867 294.988 20.0234L294.736 20.8027C294.361 20.6816 294.041 20.6211 293.775 20.6211C293.408 20.6211 293.137 20.7441 292.961 20.9902C292.785 21.2324 292.697 21.623 292.697 22.1621V22.5781H294.332V23.334ZM301.047 25.7832C301.047 26.8301 300.783 27.6484 300.256 28.2383C299.729 28.8242 299 29.1172 298.07 29.1172C297.496 29.1172 296.986 28.9824 296.541 28.7129C296.096 28.4434 295.752 28.0566 295.51 27.5527C295.268 27.0488 295.146 26.459 295.146 25.7832C295.146 24.7363 295.408 23.9219 295.932 23.3398C296.455 22.7539 297.182 22.4609 298.111 22.4609C299.01 22.4609 299.723 22.7598 300.25 23.3574C300.781 23.9551 301.047 24.7637 301.047 25.7832ZM296.154 25.7832C296.154 26.6035 296.318 27.2285 296.646 27.6582C296.975 28.0879 297.457 28.3027 298.094 28.3027C298.73 28.3027 299.213 28.0898 299.541 27.6641C299.873 27.2344 300.039 26.6074 300.039 25.7832C300.039 24.9668 299.873 24.3477 299.541 23.9258C299.213 23.5 298.727 23.2871 298.082 23.2871C297.445 23.2871 296.965 23.4961 296.641 23.9141C296.316 24.332 296.154 24.9551 296.154 25.7832ZM311.805 24.7285C311.805 25.2832 311.719 25.791 311.547 26.252C311.375 26.7129 311.133 27.0703 310.82 27.3242C310.508 27.5781 310.148 27.7051 309.742 27.7051C309.406 27.7051 309.123 27.6035 308.893 27.4004C308.662 27.1973 308.525 26.9375 308.482 26.6211H308.436C308.279 26.9609 308.055 27.2266 307.762 27.418C307.473 27.6094 307.129 27.7051 306.73 27.7051C306.145 27.7051 305.686 27.5059 305.354 27.1074C305.025 26.7051 304.861 26.1602 304.861 25.4727C304.861 24.6758 305.092 24.0293 305.553 23.5332C306.014 23.0332 306.619 22.7832 307.369 22.7832C307.635 22.7832 307.936 22.8086 308.271 22.8594C308.607 22.9062 308.91 22.9727 309.18 23.0586L309.033 25.8125V25.9414C309.033 26.6367 309.293 26.9844 309.812 26.9844C310.168 26.9844 310.457 26.7754 310.68 26.3574C310.902 25.9355 311.014 25.3887 311.014 24.7168C311.014 24.0098 310.869 23.3906 310.58 22.8594C310.291 22.3281 309.879 21.9199 309.344 21.6348C308.812 21.3457 308.201 21.2012 307.51 21.2012C306.639 21.2012 305.881 21.3828 305.236 21.7461C304.592 22.1055 304.1 22.6211 303.76 23.293C303.42 23.9609 303.25 24.7344 303.25 25.6133C303.25 26.8047 303.564 27.7207 304.193 28.3613C304.822 29.002 305.729 29.3223 306.912 29.3223C307.732 29.3223 308.584 29.1543 309.467 28.8184V29.5977C308.717 29.9258 307.865 30.0898 306.912 30.0898C305.494 30.0898 304.393 29.7012 303.607 28.9238C302.826 28.1426 302.436 27.0527 302.436 25.6543C302.436 24.6387 302.645 23.7344 303.062 22.9414C303.48 22.1484 304.076 21.5352 304.85 21.1016C305.623 20.6641 306.51 20.4453 307.51 20.4453C308.35 20.4453 309.096 20.623 309.748 20.9785C310.404 21.3301 310.91 21.832 311.266 22.4844C311.625 23.1328 311.805 23.8809 311.805 24.7285ZM305.746 25.4961C305.746 26.4883 306.127 26.9844 306.889 26.9844C307.697 26.9844 308.137 26.373 308.207 25.1504L308.289 23.6211C308.008 23.543 307.701 23.5039 307.369 23.5039C306.861 23.5039 306.463 23.6797 306.174 24.0312C305.889 24.3828 305.746 24.8711 305.746 25.4961ZM316.445 23.334H314.811V29H313.838V23.334H312.689V22.8945L313.838 22.543V22.1855C313.838 20.6074 314.527 19.8184 315.906 19.8184C316.246 19.8184 316.645 19.8867 317.102 20.0234L316.85 20.8027C316.475 20.6816 316.154 20.6211 315.889 20.6211C315.521 20.6211 315.25 20.7441 315.074 20.9902C314.898 21.2324 314.811 21.623 314.811 22.1621V22.5781H316.445V23.334ZM320.547 22.4609C320.832 22.4609 321.088 22.4844 321.314 22.5312L321.18 23.4336C320.914 23.375 320.68 23.3457 320.477 23.3457C319.957 23.3457 319.512 23.5566 319.141 23.9785C318.773 24.4004 318.59 24.9258 318.59 25.5547V29H317.617V22.5781H318.42L318.531 23.7676H318.578C318.816 23.3496 319.104 23.0273 319.439 22.8008C319.775 22.5742 320.145 22.4609 320.547 22.4609ZM325.229 29.1172C324.279 29.1172 323.529 28.8281 322.979 28.25C322.432 27.6719 322.158 26.8691 322.158 25.8418C322.158 24.8066 322.412 23.9844 322.92 23.375C323.432 22.7656 324.117 22.4609 324.977 22.4609C325.781 22.4609 326.418 22.7266 326.887 23.2578C327.355 23.7852 327.59 24.4824 327.59 25.3496V25.9648H323.166C323.186 26.7188 323.375 27.291 323.734 27.6816C324.098 28.0723 324.607 28.2676 325.264 28.2676C325.955 28.2676 326.639 28.123 327.314 27.834V28.7012C326.971 28.8496 326.645 28.9551 326.336 29.0176C326.031 29.084 325.662 29.1172 325.229 29.1172ZM324.965 23.2754C324.449 23.2754 324.037 23.4434 323.729 23.7793C323.424 24.1152 323.244 24.5801 323.189 25.1738H326.547C326.547 24.5605 326.41 24.0918 326.137 23.7676C325.863 23.4395 325.473 23.2754 324.965 23.2754ZM333.396 27.248C333.396 27.8457 333.174 28.3066 332.729 28.6309C332.283 28.9551 331.658 29.1172 330.854 29.1172C330.002 29.1172 329.338 28.9824 328.861 28.7129V27.8105C329.17 27.9668 329.5 28.0898 329.852 28.1797C330.207 28.2695 330.549 28.3145 330.877 28.3145C331.385 28.3145 331.775 28.2344 332.049 28.0742C332.322 27.9102 332.459 27.6621 332.459 27.3301C332.459 27.0801 332.35 26.8672 332.131 26.6914C331.916 26.5117 331.494 26.3008 330.865 26.0586C330.268 25.8359 329.842 25.6426 329.588 25.4785C329.338 25.3105 329.15 25.1211 329.025 24.9102C328.904 24.6992 328.844 24.4473 328.844 24.1543C328.844 23.6309 329.057 23.2188 329.482 22.918C329.908 22.6133 330.492 22.4609 331.234 22.4609C331.926 22.4609 332.602 22.6016 333.262 22.8828L332.916 23.6738C332.271 23.4082 331.688 23.2754 331.164 23.2754C330.703 23.2754 330.355 23.3477 330.121 23.4922C329.887 23.6367 329.77 23.8359 329.77 24.0898C329.77 24.2617 329.812 24.4082 329.898 24.5293C329.988 24.6504 330.131 24.7656 330.326 24.875C330.521 24.9844 330.896 25.1426 331.451 25.3496C332.213 25.627 332.727 25.9062 332.992 26.1875C333.262 26.4688 333.396 26.8223 333.396 27.248ZM339.379 29V24.8457C339.379 24.3223 339.26 23.9316 339.021 23.6738C338.783 23.416 338.41 23.2871 337.902 23.2871C337.227 23.2871 336.732 23.4707 336.42 23.8379C336.111 24.2051 335.957 24.8066 335.957 25.6426V29H334.984V19.8828H335.957V22.6426C335.957 22.9746 335.941 23.25 335.91 23.4688H335.969C336.16 23.1602 336.432 22.918 336.783 22.7422C337.139 22.5625 337.543 22.4727 337.996 22.4727C338.781 22.4727 339.369 22.6602 339.76 23.0352C340.154 23.4062 340.352 23.998 340.352 24.8105V29H339.379ZM346.75 29V24.8457C346.75 24.3223 346.631 23.9316 346.393 23.6738C346.154 23.416 345.781 23.2871 345.273 23.2871C344.602 23.2871 344.109 23.4688 343.797 23.832C343.484 24.1953 343.328 24.7949 343.328 25.6309V29H342.355V22.5781H343.146L343.305 23.457H343.352C343.551 23.1406 343.83 22.8965 344.189 22.7246C344.549 22.5488 344.949 22.4609 345.391 22.4609C346.164 22.4609 346.746 22.6484 347.137 23.0234C347.527 23.3945 347.723 23.9902 347.723 24.8105V29H346.75ZM352.439 29.1172C351.49 29.1172 350.74 28.8281 350.189 28.25C349.643 27.6719 349.369 26.8691 349.369 25.8418C349.369 24.8066 349.623 23.9844 350.131 23.375C350.643 22.7656 351.328 22.4609 352.188 22.4609C352.992 22.4609 353.629 22.7266 354.098 23.2578C354.566 23.7852 354.801 24.4824 354.801 25.3496V25.9648H350.377C350.396 26.7188 350.586 27.291 350.945 27.6816C351.309 28.0723 351.818 28.2676 352.475 28.2676C353.166 28.2676 353.85 28.123 354.525 27.834V28.7012C354.182 28.8496 353.855 28.9551 353.547 29.0176C353.242 29.084 352.873 29.1172 352.439 29.1172ZM352.176 23.2754C351.66 23.2754 351.248 23.4434 350.939 23.7793C350.635 24.1152 350.455 24.5801 350.4 25.1738H353.758C353.758 24.5605 353.621 24.0918 353.348 23.7676C353.074 23.4395 352.684 23.2754 352.176 23.2754ZM360.607 27.248C360.607 27.8457 360.385 28.3066 359.939 28.6309C359.494 28.9551 358.869 29.1172 358.064 29.1172C357.213 29.1172 356.549 28.9824 356.072 28.7129V27.8105C356.381 27.9668 356.711 28.0898 357.062 28.1797C357.418 28.2695 357.76 28.3145 358.088 28.3145C358.596 28.3145 358.986 28.2344 359.26 28.0742C359.533 27.9102 359.67 27.6621 359.67 27.3301C359.67 27.0801 359.561 26.8672 359.342 26.6914C359.127 26.5117 358.705 26.3008 358.076 26.0586C357.479 25.8359 357.053 25.6426 356.799 25.4785C356.549 25.3105 356.361 25.1211 356.236 24.9102C356.115 24.6992 356.055 24.4473 356.055 24.1543C356.055 23.6309 356.268 23.2188 356.693 22.918C357.119 22.6133 357.703 22.4609 358.445 22.4609C359.137 22.4609 359.812 22.6016 360.473 22.8828L360.127 23.6738C359.482 23.4082 358.898 23.2754 358.375 23.2754C357.914 23.2754 357.566 23.3477 357.332 23.4922C357.098 23.6367 356.98 23.8359 356.98 24.0898C356.98 24.2617 357.023 24.4082 357.109 24.5293C357.199 24.6504 357.342 24.7656 357.537 24.875C357.732 24.9844 358.107 25.1426 358.662 25.3496C359.424 25.627 359.938 25.9062 360.203 26.1875C360.473 26.4688 360.607 26.8223 360.607 27.248ZM364.908 29.1172C363.959 29.1172 363.209 28.8281 362.658 28.25C362.111 27.6719 361.838 26.8691 361.838 25.8418C361.838 24.8066 362.092 23.9844 362.6 23.375C363.111 22.7656 363.797 22.4609 364.656 22.4609C365.461 22.4609 366.098 22.7266 366.566 23.2578C367.035 23.7852 367.27 24.4824 367.27 25.3496V25.9648H362.846C362.865 26.7188 363.055 27.291 363.414 27.6816C363.777 28.0723 364.287 28.2676 364.943 28.2676C365.635 28.2676 366.318 28.123 366.994 27.834V28.7012C366.65 28.8496 366.324 28.9551 366.016 29.0176C365.711 29.084 365.342 29.1172 364.908 29.1172ZM364.645 23.2754C364.129 23.2754 363.717 23.4434 363.408 23.7793C363.104 24.1152 362.924 24.5801 362.869 25.1738H366.227C366.227 24.5605 366.09 24.0918 365.816 23.7676C365.543 23.4395 365.152 23.2754 364.645 23.2754ZM371.5 29.1172C370.57 29.1172 369.85 28.832 369.338 28.2617C368.83 27.6875 368.576 26.877 368.576 25.8301C368.576 24.7559 368.834 23.9258 369.35 23.3398C369.869 22.7539 370.607 22.4609 371.564 22.4609C371.873 22.4609 372.182 22.4941 372.49 22.5605C372.799 22.627 373.041 22.7051 373.217 22.7949L372.918 23.6211C372.703 23.5352 372.469 23.4648 372.215 23.4102C371.961 23.3516 371.736 23.3223 371.541 23.3223C370.236 23.3223 369.584 24.1543 369.584 25.8184C369.584 26.6074 369.742 27.2129 370.059 27.6348C370.379 28.0566 370.852 28.2676 371.477 28.2676C372.012 28.2676 372.561 28.1523 373.123 27.9219V28.7832C372.693 29.0059 372.152 29.1172 371.5 29.1172ZM380.195 25.7832C380.195 26.8301 379.932 27.6484 379.404 28.2383C378.877 28.8242 378.148 29.1172 377.219 29.1172C376.645 29.1172 376.135 28.9824 375.689 28.7129C375.244 28.4434 374.9 28.0566 374.658 27.5527C374.416 27.0488 374.295 26.459 374.295 25.7832C374.295 24.7363 374.557 23.9219 375.08 23.3398C375.604 22.7539 376.33 22.4609 377.26 22.4609C378.158 22.4609 378.871 22.7598 379.398 23.3574C379.93 23.9551 380.195 24.7637 380.195 25.7832ZM375.303 25.7832C375.303 26.6035 375.467 27.2285 375.795 27.6582C376.123 28.0879 376.605 28.3027 377.242 28.3027C377.879 28.3027 378.361 28.0898 378.689 27.6641C379.021 27.2344 379.188 26.6074 379.188 25.7832C379.188 24.9668 379.021 24.3477 378.689 23.9258C378.361 23.5 377.875 23.2871 377.23 23.2871C376.594 23.2871 376.113 23.4961 375.789 23.9141C375.465 24.332 375.303 24.9551 375.303 25.7832ZM390.092 29V24.8223C390.092 24.3105 389.982 23.9277 389.764 23.6738C389.545 23.416 389.205 23.2871 388.744 23.2871C388.139 23.2871 387.691 23.4609 387.402 23.8086C387.113 24.1562 386.969 24.6914 386.969 25.4141V29H385.996V24.8223C385.996 24.3105 385.887 23.9277 385.668 23.6738C385.449 23.416 385.107 23.2871 384.643 23.2871C384.033 23.2871 383.586 23.4707 383.301 23.8379C383.02 24.2012 382.879 24.7988 382.879 25.6309V29H381.906V22.5781H382.697L382.855 23.457H382.902C383.086 23.1445 383.344 22.9004 383.676 22.7246C384.012 22.5488 384.387 22.4609 384.801 22.4609C385.805 22.4609 386.461 22.8242 386.77 23.5508H386.816C387.008 23.2148 387.285 22.9492 387.648 22.7539C388.012 22.5586 388.426 22.4609 388.891 22.4609C389.617 22.4609 390.16 22.6484 390.52 23.0234C390.883 23.3945 391.064 23.9902 391.064 24.8105V29H390.092ZM392.934 28.3789C392.934 28.1172 392.992 27.9199 393.109 27.7871C393.23 27.6504 393.402 27.582 393.625 27.582C393.852 27.582 394.027 27.6504 394.152 27.7871C394.281 27.9199 394.346 28.1172 394.346 28.3789C394.346 28.6328 394.281 28.8281 394.152 28.9648C394.023 29.1016 393.848 29.1699 393.625 29.1699C393.426 29.1699 393.26 29.1094 393.127 28.9883C392.998 28.8633 392.934 28.6602 392.934 28.3789ZM398.84 29.1172C397.91 29.1172 397.189 28.832 396.678 28.2617C396.17 27.6875 395.916 26.877 395.916 25.8301C395.916 24.7559 396.174 23.9258 396.689 23.3398C397.209 22.7539 397.947 22.4609 398.904 22.4609C399.213 22.4609 399.521 22.4941 399.83 22.5605C400.139 22.627 400.381 22.7051 400.557 22.7949L400.258 23.6211C400.043 23.5352 399.809 23.4648 399.555 23.4102C399.301 23.3516 399.076 23.3223 398.881 23.3223C397.576 23.3223 396.924 24.1543 396.924 25.8184C396.924 26.6074 397.082 27.2129 397.398 27.6348C397.719 28.0566 398.191 28.2676 398.816 28.2676C399.352 28.2676 399.9 28.1523 400.463 27.9219V28.7832C400.033 29.0059 399.492 29.1172 398.84 29.1172ZM407.535 25.7832C407.535 26.8301 407.271 27.6484 406.744 28.2383C406.217 28.8242 405.488 29.1172 404.559 29.1172C403.984 29.1172 403.475 28.9824 403.029 28.7129C402.584 28.4434 402.24 28.0566 401.998 27.5527C401.756 27.0488 401.635 26.459 401.635 25.7832C401.635 24.7363 401.896 23.9219 402.42 23.3398C402.943 22.7539 403.67 22.4609 404.6 22.4609C405.498 22.4609 406.211 22.7598 406.738 23.3574C407.27 23.9551 407.535 24.7637 407.535 25.7832ZM402.643 25.7832C402.643 26.6035 402.807 27.2285 403.135 27.6582C403.463 28.0879 403.945 28.3027 404.582 28.3027C405.219 28.3027 405.701 28.0898 406.029 27.6641C406.361 27.2344 406.527 26.6074 406.527 25.7832C406.527 24.9668 406.361 24.3477 406.029 23.9258C405.701 23.5 405.215 23.2871 404.57 23.2871C403.934 23.2871 403.453 23.4961 403.129 23.9141C402.805 24.332 402.643 24.9551 402.643 25.7832ZM417.432 29V24.8223C417.432 24.3105 417.322 23.9277 417.104 23.6738C416.885 23.416 416.545 23.2871 416.084 23.2871C415.479 23.2871 415.031 23.4609 414.742 23.8086C414.453 24.1562 414.309 24.6914 414.309 25.4141V29H413.336V24.8223C413.336 24.3105 413.227 23.9277 413.008 23.6738C412.789 23.416 412.447 23.2871 411.982 23.2871C411.373 23.2871 410.926 23.4707 410.641 23.8379C410.359 24.2012 410.219 24.7988 410.219 25.6309V29H409.246V22.5781H410.037L410.195 23.457H410.242C410.426 23.1445 410.684 22.9004 411.016 22.7246C411.352 22.5488 411.727 22.4609 412.141 22.4609C413.145 22.4609 413.801 22.8242 414.109 23.5508H414.156C414.348 23.2148 414.625 22.9492 414.988 22.7539C415.352 22.5586 415.766 22.4609 416.23 22.4609C416.957 22.4609 417.5 22.6484 417.859 23.0234C418.223 23.3945 418.404 23.9902 418.404 24.8105V29H417.432Z" fill="#151515"/>
</g>
<g clip-path="url(#clip1_15_1660)">
<path d="M1019.18 20.4336H1021.6C1022.73 20.4336 1023.56 20.6035 1024.06 20.9434C1024.57 21.2832 1024.83 21.8203 1024.83 22.5547C1024.83 23.0625 1024.68 23.4824 1024.4 23.8145C1024.12 24.1426 1023.71 24.3555 1023.16 24.4531V24.5117C1024.46 24.7344 1025.11 25.418 1025.11 26.5625C1025.11 27.3281 1024.85 27.9258 1024.33 28.3555C1023.82 28.7852 1023.1 29 1022.17 29H1019.18V20.4336ZM1020.17 24.1016H1021.81C1022.52 24.1016 1023.02 23.9922 1023.33 23.7734C1023.64 23.5508 1023.79 23.1777 1023.79 22.6543C1023.79 22.1738 1023.62 21.8281 1023.28 21.6172C1022.94 21.4023 1022.39 21.2949 1021.64 21.2949H1020.17V24.1016ZM1020.17 24.9453V28.1504H1021.96C1022.65 28.1504 1023.17 28.0176 1023.52 27.752C1023.87 27.4824 1024.05 27.0625 1024.05 26.4922C1024.05 25.9609 1023.87 25.5703 1023.51 25.3203C1023.15 25.0703 1022.61 24.9453 1021.88 24.9453H1020.17ZM1027.79 29H1026.81V19.8828H1027.79V29ZM1035.39 25.7832C1035.39 26.8301 1035.13 27.6484 1034.6 28.2383C1034.07 28.8242 1033.34 29.1172 1032.41 29.1172C1031.84 29.1172 1031.33 28.9824 1030.88 28.7129C1030.44 28.4434 1030.1 28.0566 1029.85 27.5527C1029.61 27.0488 1029.49 26.459 1029.49 25.7832C1029.49 24.7363 1029.75 23.9219 1030.28 23.3398C1030.8 22.7539 1031.53 22.4609 1032.46 22.4609C1033.35 22.4609 1034.07 22.7598 1034.59 23.3574C1035.12 23.9551 1035.39 24.7637 1035.39 25.7832ZM1030.5 25.7832C1030.5 26.6035 1030.66 27.2285 1030.99 27.6582C1031.32 28.0879 1031.8 28.3027 1032.44 28.3027C1033.07 28.3027 1033.56 28.0898 1033.88 27.6641C1034.22 27.2344 1034.38 26.6074 1034.38 25.7832C1034.38 24.9668 1034.22 24.3477 1033.88 23.9258C1033.56 23.5 1033.07 23.2871 1032.43 23.2871C1031.79 23.2871 1031.31 23.4961 1030.98 23.9141C1030.66 24.332 1030.5 24.9551 1030.5 25.7832ZM1042.36 22.5781V23.1934L1041.17 23.334C1041.28 23.4707 1041.38 23.6504 1041.46 23.873C1041.55 24.0918 1041.59 24.3398 1041.59 24.6172C1041.59 25.2461 1041.38 25.748 1040.95 26.123C1040.52 26.498 1039.93 26.6855 1039.18 26.6855C1038.98 26.6855 1038.8 26.6699 1038.64 26.6387C1038.22 26.8574 1038.02 27.1328 1038.02 27.4648C1038.02 27.6406 1038.09 27.7715 1038.23 27.8574C1038.38 27.9395 1038.62 27.9805 1038.98 27.9805H1040.11C1040.81 27.9805 1041.34 28.127 1041.71 28.4199C1042.09 28.7129 1042.28 29.1387 1042.28 29.6973C1042.28 30.4082 1041.99 30.9492 1041.42 31.3203C1040.85 31.6953 1040.02 31.8828 1038.92 31.8828C1038.08 31.8828 1037.44 31.7266 1036.98 31.4141C1036.53 31.1016 1036.3 30.6602 1036.3 30.0898C1036.3 29.6992 1036.42 29.3613 1036.67 29.0762C1036.92 28.791 1037.28 28.5977 1037.73 28.4961C1037.56 28.4219 1037.43 28.3066 1037.31 28.1504C1037.2 27.9941 1037.15 27.8125 1037.15 27.6055C1037.15 27.3711 1037.21 27.166 1037.34 26.9902C1037.46 26.8145 1037.66 26.6445 1037.93 26.4805C1037.6 26.3438 1037.32 26.1113 1037.11 25.7832C1036.91 25.4551 1036.8 25.0801 1036.8 24.6582C1036.8 23.9551 1037.01 23.4141 1037.44 23.0352C1037.86 22.6523 1038.46 22.4609 1039.23 22.4609C1039.56 22.4609 1039.87 22.5 1040.14 22.5781H1042.36ZM1037.24 30.0781C1037.24 30.4258 1037.38 30.6895 1037.68 30.8691C1037.97 31.0488 1038.39 31.1387 1038.94 31.1387C1039.75 31.1387 1040.36 31.0156 1040.75 30.7695C1041.14 30.5273 1041.34 30.1973 1041.34 29.7793C1041.34 29.4316 1041.23 29.1895 1041.02 29.0527C1040.8 28.9199 1040.4 28.8535 1039.8 28.8535H1038.64C1038.2 28.8535 1037.85 28.959 1037.61 29.1699C1037.36 29.3809 1037.24 29.6836 1037.24 30.0781ZM1037.76 24.6348C1037.76 25.084 1037.89 25.4238 1038.14 25.6543C1038.4 25.8848 1038.75 26 1039.21 26C1040.15 26 1040.63 25.5391 1040.63 24.6172C1040.63 23.6523 1040.15 23.1699 1039.19 23.1699C1038.73 23.1699 1038.38 23.293 1038.13 23.5391C1037.89 23.7852 1037.76 24.1504 1037.76 24.6348Z" fill="#6A983C"/>
<path d="M1087.56 29L1086.5 26.2754H1083.06L1082.01 29H1081L1084.39 20.3984H1085.22L1088.59 29H1087.56ZM1086.19 25.3789L1085.19 22.7246C1085.06 22.3887 1084.93 21.9766 1084.79 21.4883C1084.71 21.8633 1084.58 22.2754 1084.42 22.7246L1083.41 25.3789H1086.19ZM1092.61 22.4727C1093.46 22.4727 1094.11 22.7617 1094.58 23.3398C1095.04 23.9141 1095.28 24.7285 1095.28 25.7832C1095.28 26.8379 1095.04 27.6582 1094.57 28.2441C1094.1 28.8262 1093.45 29.1172 1092.61 29.1172C1092.2 29.1172 1091.81 29.041 1091.46 28.8887C1091.12 28.7324 1090.83 28.4941 1090.6 28.1738H1090.53L1090.32 29H1089.62V19.8828H1090.6V22.0977C1090.6 22.5938 1090.58 23.0391 1090.55 23.4336H1090.6C1091.05 22.793 1091.72 22.4727 1092.61 22.4727ZM1092.47 23.2871C1091.81 23.2871 1091.33 23.4785 1091.04 23.8613C1090.74 24.2402 1090.6 24.8809 1090.6 25.7832C1090.6 26.6855 1090.75 27.332 1091.05 27.7227C1091.35 28.1094 1091.83 28.3027 1092.5 28.3027C1093.09 28.3027 1093.54 28.0859 1093.83 27.6523C1094.12 27.2148 1094.27 26.5879 1094.27 25.7715C1094.27 24.9355 1094.12 24.3125 1093.83 23.9023C1093.54 23.4922 1093.09 23.2871 1092.47 23.2871ZM1102.53 25.7832C1102.53 26.8301 1102.26 27.6484 1101.74 28.2383C1101.21 28.8242 1100.48 29.1172 1099.55 29.1172C1098.98 29.1172 1098.47 28.9824 1098.02 28.7129C1097.58 28.4434 1097.23 28.0566 1096.99 27.5527C1096.75 27.0488 1096.63 26.459 1096.63 25.7832C1096.63 24.7363 1096.89 23.9219 1097.41 23.3398C1097.94 22.7539 1098.66 22.4609 1099.59 22.4609C1100.49 22.4609 1101.2 22.7598 1101.73 23.3574C1102.26 23.9551 1102.53 24.7637 1102.53 25.7832ZM1097.63 25.7832C1097.63 26.6035 1097.8 27.2285 1098.13 27.6582C1098.46 28.0879 1098.94 28.3027 1099.57 28.3027C1100.21 28.3027 1100.69 28.0898 1101.02 27.6641C1101.35 27.2344 1101.52 26.6074 1101.52 25.7832C1101.52 24.9668 1101.35 24.3477 1101.02 23.9258C1100.69 23.5 1100.21 23.2871 1099.56 23.2871C1098.93 23.2871 1098.45 23.4961 1098.12 23.9141C1097.8 24.332 1097.63 24.9551 1097.63 25.7832ZM1105.15 22.5781V26.7441C1105.15 27.2676 1105.27 27.6582 1105.51 27.916C1105.75 28.1738 1106.12 28.3027 1106.63 28.3027C1107.3 28.3027 1107.79 28.1191 1108.1 27.752C1108.41 27.3848 1108.57 26.7852 1108.57 25.9531V22.5781H1109.54V29H1108.74L1108.6 28.1387H1108.54C1108.35 28.4551 1108.07 28.6973 1107.71 28.8652C1107.36 29.0332 1106.96 29.1172 1106.51 29.1172C1105.72 29.1172 1105.14 28.9316 1104.75 28.5605C1104.36 28.1895 1104.17 27.5957 1104.17 26.7793V22.5781H1105.15ZM1113.68 28.3145C1113.86 28.3145 1114.02 28.3027 1114.18 28.2793C1114.34 28.252 1114.47 28.2246 1114.56 28.1973V28.9414C1114.46 28.9922 1114.3 29.0332 1114.09 29.0645C1113.89 29.0996 1113.71 29.1172 1113.54 29.1172C1112.3 29.1172 1111.68 28.4629 1111.68 27.1543V23.334H1110.76V22.8652L1111.68 22.4609L1112.09 21.0898H1112.65V22.5781H1114.52V23.334H1112.65V27.1133C1112.65 27.5 1112.74 27.7969 1112.93 28.0039C1113.11 28.2109 1113.36 28.3145 1113.68 28.3145ZM1125.58 20.4336V25.9766C1125.58 26.9531 1125.29 27.7207 1124.7 28.2793C1124.11 28.8379 1123.3 29.1172 1122.27 29.1172C1121.24 29.1172 1120.44 28.8359 1119.87 28.2734C1119.31 27.7109 1119.03 26.9375 1119.03 25.9531V20.4336H1120.02V26.0234C1120.02 26.7383 1120.22 27.2871 1120.61 27.6699C1121 28.0527 1121.57 28.2441 1122.33 28.2441C1123.05 28.2441 1123.61 28.0527 1124 27.6699C1124.39 27.2832 1124.59 26.7305 1124.59 26.0117V20.4336H1125.58ZM1131.85 27.248C1131.85 27.8457 1131.63 28.3066 1131.19 28.6309C1130.74 28.9551 1130.12 29.1172 1129.31 29.1172C1128.46 29.1172 1127.79 28.9824 1127.32 28.7129V27.8105C1127.63 27.9668 1127.96 28.0898 1128.31 28.1797C1128.66 28.2695 1129.01 28.3145 1129.33 28.3145C1129.84 28.3145 1130.23 28.2344 1130.51 28.0742C1130.78 27.9102 1130.92 27.6621 1130.92 27.3301C1130.92 27.0801 1130.81 26.8672 1130.59 26.6914C1130.37 26.5117 1129.95 26.3008 1129.32 26.0586C1128.72 25.8359 1128.3 25.6426 1128.04 25.4785C1127.79 25.3105 1127.61 25.1211 1127.48 24.9102C1127.36 24.6992 1127.3 24.4473 1127.3 24.1543C1127.3 23.6309 1127.51 23.2188 1127.94 22.918C1128.37 22.6133 1128.95 22.4609 1129.69 22.4609C1130.38 22.4609 1131.06 22.6016 1131.72 22.8828L1131.37 23.6738C1130.73 23.4082 1130.14 23.2754 1129.62 23.2754C1129.16 23.2754 1128.81 23.3477 1128.58 23.4922C1128.34 23.6367 1128.23 23.8359 1128.23 24.0898C1128.23 24.2617 1128.27 24.4082 1128.36 24.5293C1128.45 24.6504 1128.59 24.7656 1128.78 24.875C1128.98 24.9844 1129.35 25.1426 1129.91 25.3496C1130.67 25.627 1131.18 25.9062 1131.45 26.1875C1131.72 26.4688 1131.85 26.8223 1131.85 27.248Z" fill="#6A983C"/>
<path d="M1175.85 21.2012C1174.9 21.2012 1174.16 21.5156 1173.61 22.1445C1173.07 22.7695 1172.8 23.627 1172.8 24.7168C1172.8 25.8379 1173.06 26.7051 1173.58 27.3184C1174.11 27.9277 1174.86 28.2324 1175.83 28.2324C1176.43 28.2324 1177.11 28.125 1177.88 27.9102V28.7832C1177.29 29.0059 1176.55 29.1172 1175.68 29.1172C1174.42 29.1172 1173.45 28.7344 1172.76 27.9688C1172.07 27.2031 1171.73 26.1152 1171.73 24.7051C1171.73 23.8223 1171.9 23.0488 1172.22 22.3848C1172.56 21.7207 1173.03 21.209 1173.65 20.8496C1174.28 20.4902 1175.01 20.3105 1175.86 20.3105C1176.76 20.3105 1177.54 20.4746 1178.21 20.8027L1177.79 21.6582C1177.14 21.3535 1176.49 21.2012 1175.85 21.2012ZM1183.55 29L1183.36 28.0859H1183.31C1182.99 28.4883 1182.67 28.7617 1182.35 28.9062C1182.03 29.0469 1181.64 29.1172 1181.16 29.1172C1180.52 29.1172 1180.02 28.9531 1179.66 28.625C1179.3 28.2969 1179.12 27.8301 1179.12 27.2246C1179.12 25.9277 1180.16 25.248 1182.23 25.1855L1183.32 25.1504V24.752C1183.32 24.248 1183.21 23.877 1182.99 23.6387C1182.78 23.3965 1182.43 23.2754 1181.96 23.2754C1181.42 23.2754 1180.82 23.4395 1180.14 23.7676L1179.84 23.0234C1180.16 22.8516 1180.5 22.7168 1180.88 22.6191C1181.26 22.5215 1181.64 22.4727 1182.02 22.4727C1182.78 22.4727 1183.35 22.6426 1183.71 22.9824C1184.09 23.3223 1184.27 23.8672 1184.27 24.6172V29H1183.55ZM1181.35 28.3145C1181.96 28.3145 1182.43 28.1484 1182.78 27.8164C1183.12 27.4844 1183.3 27.0195 1183.3 26.4219V25.8418L1182.33 25.8828C1181.55 25.9102 1180.99 26.0312 1180.65 26.2461C1180.31 26.457 1180.14 26.7871 1180.14 27.2363C1180.14 27.5879 1180.25 27.8555 1180.46 28.0391C1180.67 28.2227 1180.97 28.3145 1181.35 28.3145ZM1189.21 22.4609C1189.5 22.4609 1189.75 22.4844 1189.98 22.5312L1189.84 23.4336C1189.58 23.375 1189.34 23.3457 1189.14 23.3457C1188.62 23.3457 1188.18 23.5566 1187.8 23.9785C1187.44 24.4004 1187.25 24.9258 1187.25 25.5547V29H1186.28V22.5781H1187.08L1187.2 23.7676H1187.24C1187.48 23.3496 1187.77 23.0273 1188.1 22.8008C1188.44 22.5742 1188.81 22.4609 1189.21 22.4609ZM1193.89 29.1172C1192.94 29.1172 1192.19 28.8281 1191.64 28.25C1191.1 27.6719 1190.82 26.8691 1190.82 25.8418C1190.82 24.8066 1191.08 23.9844 1191.58 23.375C1192.1 22.7656 1192.78 22.4609 1193.64 22.4609C1194.45 22.4609 1195.08 22.7266 1195.55 23.2578C1196.02 23.7852 1196.25 24.4824 1196.25 25.3496V25.9648H1191.83C1191.85 26.7188 1192.04 27.291 1192.4 27.6816C1192.76 28.0723 1193.27 28.2676 1193.93 28.2676C1194.62 28.2676 1195.3 28.123 1195.98 27.834V28.7012C1195.63 28.8496 1195.31 28.9551 1195 29.0176C1194.7 29.084 1194.33 29.1172 1193.89 29.1172ZM1193.63 23.2754C1193.11 23.2754 1192.7 23.4434 1192.39 23.7793C1192.09 24.1152 1191.91 24.5801 1191.85 25.1738H1195.21C1195.21 24.5605 1195.07 24.0918 1194.8 23.7676C1194.53 23.4395 1194.14 23.2754 1193.63 23.2754ZM1200.63 29.1172C1199.68 29.1172 1198.93 28.8281 1198.38 28.25C1197.83 27.6719 1197.56 26.8691 1197.56 25.8418C1197.56 24.8066 1197.81 23.9844 1198.32 23.375C1198.83 22.7656 1199.52 22.4609 1200.38 22.4609C1201.18 22.4609 1201.82 22.7266 1202.29 23.2578C1202.76 23.7852 1202.99 24.4824 1202.99 25.3496V25.9648H1198.57C1198.59 26.7188 1198.78 27.291 1199.14 27.6816C1199.5 28.0723 1200.01 28.2676 1200.67 28.2676C1201.36 28.2676 1202.04 28.123 1202.72 27.834V28.7012C1202.37 28.8496 1202.05 28.9551 1201.74 29.0176C1201.43 29.084 1201.06 29.1172 1200.63 29.1172ZM1200.37 23.2754C1199.85 23.2754 1199.44 23.4434 1199.13 23.7793C1198.83 24.1152 1198.65 24.5801 1198.59 25.1738H1201.95C1201.95 24.5605 1201.81 24.0918 1201.54 23.7676C1201.27 23.4395 1200.88 23.2754 1200.37 23.2754ZM1207.59 22.4609C1207.87 22.4609 1208.13 22.4844 1208.35 22.5312L1208.22 23.4336C1207.95 23.375 1207.72 23.3457 1207.52 23.3457C1207 23.3457 1206.55 23.5566 1206.18 23.9785C1205.81 24.4004 1205.63 24.9258 1205.63 25.5547V29H1204.66V22.5781H1205.46L1205.57 23.7676H1205.62C1205.86 23.3496 1206.14 23.0273 1206.48 22.8008C1206.81 22.5742 1207.18 22.4609 1207.59 22.4609ZM1213.7 27.248C1213.7 27.8457 1213.47 28.3066 1213.03 28.6309C1212.58 28.9551 1211.96 29.1172 1211.15 29.1172C1210.3 29.1172 1209.64 28.9824 1209.16 28.7129V27.8105C1209.47 27.9668 1209.8 28.0898 1210.15 28.1797C1210.51 28.2695 1210.85 28.3145 1211.18 28.3145C1211.69 28.3145 1212.08 28.2344 1212.35 28.0742C1212.62 27.9102 1212.76 27.6621 1212.76 27.3301C1212.76 27.0801 1212.65 26.8672 1212.43 26.6914C1212.22 26.5117 1211.79 26.3008 1211.17 26.0586C1210.57 25.8359 1210.14 25.6426 1209.89 25.4785C1209.64 25.3105 1209.45 25.1211 1209.33 24.9102C1209.21 24.6992 1209.14 24.4473 1209.14 24.1543C1209.14 23.6309 1209.36 23.2188 1209.78 22.918C1210.21 22.6133 1210.79 22.4609 1211.54 22.4609C1212.23 22.4609 1212.9 22.6016 1213.56 22.8828L1213.22 23.6738C1212.57 23.4082 1211.99 23.2754 1211.46 23.2754C1211 23.2754 1210.66 23.3477 1210.42 23.4922C1210.19 23.6367 1210.07 23.8359 1210.07 24.0898C1210.07 24.2617 1210.11 24.4082 1210.2 24.5293C1210.29 24.6504 1210.43 24.7656 1210.63 24.875C1210.82 24.9844 1211.2 25.1426 1211.75 25.3496C1212.51 25.627 1213.03 25.9062 1213.29 26.1875C1213.56 26.4688 1213.7 26.8223 1213.7 27.248Z" fill="#6A983C"/>
</g>
<line opacity="0.05" x1="45" y1="47.5" x2="1215" y2="47.5" stroke="#151515"/>
<g clip-path="url(#clip2_15_1660)">
<path d="M1208.89 116.85H1197.11C1196.79 116.85 1196.48 116.744 1196.23 116.548C1195.98 116.352 1195.81 116.078 1195.73 115.77L1193.08 105.16C1193.05 105.057 1193.05 104.949 1193.07 104.845C1193.1 104.74 1193.14 104.643 1193.21 104.559C1193.27 104.475 1193.36 104.407 1193.45 104.36C1193.55 104.314 1193.65 104.29 1193.76 104.29H1212.24C1212.35 104.29 1212.45 104.314 1212.55 104.36C1212.64 104.407 1212.73 104.475 1212.79 104.559C1212.86 104.643 1212.9 104.74 1212.93 104.845C1212.95 104.949 1212.95 105.057 1212.92 105.16L1210.27 115.77C1210.19 116.078 1210.02 116.352 1209.77 116.548C1209.52 116.744 1209.21 116.85 1208.89 116.85V116.85Z" stroke="#151515" stroke-width="2.5" stroke-linecap="round" stroke-linejoin="round"/>
<path d="M1200.8 99.1499L1197.9 104.29" stroke="#151515" stroke-width="2.5" stroke-linecap="round" stroke-linejoin="round"/>
<path d="M1204.88 99.1499L1207.79 104.29" stroke="#151515" stroke-width="2.5" stroke-linecap="round" stroke-linejoin="round"/>
<path d="M1130 118L1130.79 115.12C1133.4 105.62 1144.6 105.62 1147.21 115.12L1148 118" stroke="#151515" stroke-width="2.5" stroke-linecap="round" stroke-linejoin="round"/>
<path d="M1139 107.98C1141.76 107.98 1144 105.741 1144 102.98C1144 100.219 1141.76 97.98 1139 97.98C1136.24 97.98 1134 100.219 1134 102.98C1134 105.741 1136.24 107.98 1139 107.98Z" stroke="#151515" stroke-width="2.5" stroke-linecap="round" stroke-linejoin="bevel"/>
<g filter="url(#filter0_d_15_1660)">
<rect x="1185" y="110" width="16" height="16" rx="8" fill="#E6704B"/>
</g>
<path d="M1189.56 120.296V118.976L1193.49 113.36H1195.44V118.832H1196.5V120.296H1195.44V122H1193.76V120.296H1189.56ZM1193.87 115.16L1191.41 118.832H1193.87V115.16Z" fill="white"/>
<rect x="380.5" y="88.5" width="499" height="41" rx="11.5" fill="#F9F9F9" stroke="#D1D1D1"/>
<path d="M403.485 113.14H399.555L398.925 115H396.24L400.05 104.47H403.02L406.83 115H404.115L403.485 113.14ZM402.825 111.16L401.52 107.305L400.23 111.16H402.825ZM410.555 103.9V115H407.99V103.9H410.555ZM414.978 103.9V115H412.413V103.9H414.978ZM419.506 110.815C419.506 109.945 419.681 109.185 420.031 108.535C420.391 107.885 420.886 107.385 421.516 107.035C422.156 106.685 422.886 106.51 423.706 106.51C424.756 106.51 425.631 106.785 426.331 107.335C427.041 107.885 427.506 108.66 427.726 109.66H424.996C424.766 109.02 424.321 108.7 423.661 108.7C423.191 108.7 422.816 108.885 422.536 109.255C422.256 109.615 422.116 110.135 422.116 110.815C422.116 111.495 422.256 112.02 422.536 112.39C422.816 112.75 423.191 112.93 423.661 112.93C424.321 112.93 424.766 112.61 424.996 111.97H427.726C427.506 112.95 427.041 113.72 426.331 114.28C425.621 114.84 424.746 115.12 423.706 115.12C422.886 115.12 422.156 114.945 421.516 114.595C420.886 114.245 420.391 113.745 420.031 113.095C419.681 112.445 419.506 111.685 419.506 110.815ZM428.588 110.8C428.588 109.94 428.748 109.185 429.068 108.535C429.398 107.885 429.843 107.385 430.403 107.035C430.963 106.685 431.588 106.51 432.278 106.51C432.868 106.51 433.383 106.63 433.823 106.87C434.273 107.11 434.618 107.425 434.858 107.815V106.63H437.423V115H434.858V113.815C434.608 114.205 434.258 114.52 433.808 114.76C433.368 115 432.853 115.12 432.263 115.12C431.583 115.12 430.963 114.945 430.403 114.595C429.843 114.235 429.398 113.73 429.068 113.08C428.748 112.42 428.588 111.66 428.588 110.8ZM434.858 110.815C434.858 110.175 434.678 109.67 434.318 109.3C433.968 108.93 433.538 108.745 433.028 108.745C432.518 108.745 432.083 108.93 431.723 109.3C431.373 109.66 431.198 110.16 431.198 110.8C431.198 111.44 431.373 111.95 431.723 112.33C432.083 112.7 432.518 112.885 433.028 112.885C433.538 112.885 433.968 112.7 434.318 112.33C434.678 111.96 434.858 111.455 434.858 110.815ZM443.944 112.825V115H442.639C441.709 115 440.984 114.775 440.464 114.325C439.944 113.865 439.684 113.12 439.684 112.09V108.76H438.664V106.63H439.684V104.59H442.249V106.63H443.929V108.76H442.249V112.12C442.249 112.37 442.309 112.55 442.429 112.66C442.549 112.77 442.749 112.825 443.029 112.825H443.944ZM453.262 110.68C453.262 110.92 453.247 111.17 453.217 111.43H447.412C447.452 111.95 447.617 112.35 447.907 112.63C448.207 112.9 448.572 113.035 449.002 113.035C449.642 113.035 450.087 112.765 450.337 112.225H453.067C452.927 112.775 452.672 113.27 452.302 113.71C451.942 114.15 451.487 114.495 450.937 114.745C450.387 114.995 449.772 115.12 449.092 115.12C448.272 115.12 447.542 114.945 446.902 114.595C446.262 114.245 445.762 113.745 445.402 113.095C445.042 112.445 444.862 111.685 444.862 110.815C444.862 109.945 445.037 109.185 445.387 108.535C445.747 107.885 446.247 107.385 446.887 107.035C447.527 106.685 448.262 106.51 449.092 106.51C449.902 106.51 450.622 106.68 451.252 107.02C451.882 107.36 452.372 107.845 452.722 108.475C453.082 109.105 453.262 109.84 453.262 110.68ZM450.637 110.005C450.637 109.565 450.487 109.215 450.187 108.955C449.887 108.695 449.512 108.565 449.062 108.565C448.632 108.565 448.267 108.69 447.967 108.94C447.677 109.19 447.497 109.545 447.427 110.005H450.637ZM457.796 106.51C458.386 106.51 458.901 106.63 459.341 106.87C459.791 107.11 460.136 107.425 460.376 107.815V106.63H462.941V114.985C462.941 115.755 462.786 116.45 462.476 117.07C462.176 117.7 461.711 118.2 461.081 118.57C460.461 118.94 459.686 119.125 458.756 119.125C457.516 119.125 456.511 118.83 455.741 118.24C454.971 117.66 454.531 116.87 454.421 115.87H456.956C457.036 116.19 457.226 116.44 457.526 116.62C457.826 116.81 458.196 116.905 458.636 116.905C459.166 116.905 459.586 116.75 459.896 116.44C460.216 116.14 460.376 115.655 460.376 114.985V113.8C460.126 114.19 459.781 114.51 459.341 114.76C458.901 115 458.386 115.12 457.796 115.12C457.106 115.12 456.481 114.945 455.921 114.595C455.361 114.235 454.916 113.73 454.586 113.08C454.266 112.42 454.106 111.66 454.106 110.8C454.106 109.94 454.266 109.185 454.586 108.535C454.916 107.885 455.361 107.385 455.921 107.035C456.481 106.685 457.106 106.51 457.796 106.51ZM460.376 110.815C460.376 110.175 460.196 109.67 459.836 109.3C459.486 108.93 459.056 108.745 458.546 108.745C458.036 108.745 457.601 108.93 457.241 109.3C456.891 109.66 456.716 110.16 456.716 110.8C456.716 111.44 456.891 111.95 457.241 112.33C457.601 112.7 458.036 112.885 458.546 112.885C459.056 112.885 459.486 112.7 459.836 112.33C460.196 111.96 460.376 111.455 460.376 110.815ZM468.606 115.12C467.786 115.12 467.046 114.945 466.386 114.595C465.736 114.245 465.221 113.745 464.841 113.095C464.471 112.445 464.286 111.685 464.286 110.815C464.286 109.955 464.476 109.2 464.856 108.55C465.236 107.89 465.756 107.385 466.416 107.035C467.076 106.685 467.816 106.51 468.636 106.51C469.456 106.51 470.196 106.685 470.856 107.035C471.516 107.385 472.036 107.89 472.416 108.55C472.796 109.2 472.986 109.955 472.986 110.815C472.986 111.675 472.791 112.435 472.401 113.095C472.021 113.745 471.496 114.245 470.826 114.595C470.166 114.945 469.426 115.12 468.606 115.12ZM468.606 112.9C469.096 112.9 469.511 112.72 469.851 112.36C470.201 112 470.376 111.485 470.376 110.815C470.376 110.145 470.206 109.63 469.866 109.27C469.536 108.91 469.126 108.73 468.636 108.73C468.136 108.73 467.721 108.91 467.391 109.27C467.061 109.62 466.896 110.135 466.896 110.815C466.896 111.485 467.056 112 467.376 112.36C467.706 112.72 468.116 112.9 468.606 112.9ZM476.912 108.025C477.212 107.565 477.587 107.205 478.037 106.945C478.487 106.675 478.987 106.54 479.537 106.54V109.255H478.832C478.192 109.255 477.712 109.395 477.392 109.675C477.072 109.945 476.912 110.425 476.912 111.115V115H474.347V106.63H476.912V108.025ZM482.053 105.76C481.603 105.76 481.233 105.63 480.943 105.37C480.663 105.1 480.523 104.77 480.523 104.38C480.523 103.98 480.663 103.65 480.943 103.39C481.233 103.12 481.603 102.985 482.053 102.985C482.493 102.985 482.853 103.12 483.133 103.39C483.423 103.65 483.568 103.98 483.568 104.38C483.568 104.77 483.423 105.1 483.133 105.37C482.853 105.63 482.493 105.76 482.053 105.76ZM483.328 106.63V115H480.763V106.63H483.328ZM493.077 110.68C493.077 110.92 493.062 111.17 493.032 111.43H487.227C487.267 111.95 487.432 112.35 487.722 112.63C488.022 112.9 488.387 113.035 488.817 113.035C489.457 113.035 489.902 112.765 490.152 112.225H492.882C492.742 112.775 492.487 113.27 492.117 113.71C491.757 114.15 491.302 114.495 490.752 114.745C490.202 114.995 489.587 115.12 488.907 115.12C488.087 115.12 487.357 114.945 486.717 114.595C486.077 114.245 485.577 113.745 485.217 113.095C484.857 112.445 484.677 111.685 484.677 110.815C484.677 109.945 484.852 109.185 485.202 108.535C485.562 107.885 486.062 107.385 486.702 107.035C487.342 106.685 488.077 106.51 488.907 106.51C489.717 106.51 490.437 106.68 491.067 107.02C491.697 107.36 492.187 107.845 492.537 108.475C492.897 109.105 493.077 109.84 493.077 110.68ZM490.452 110.005C490.452 109.565 490.302 109.215 490.002 108.955C489.702 108.695 489.327 108.565 488.877 108.565C488.447 108.565 488.082 108.69 487.782 108.94C487.492 109.19 487.312 109.545 487.242 110.005H490.452ZM497.835 115.12C497.105 115.12 496.455 114.995 495.885 114.745C495.315 114.495 494.865 114.155 494.535 113.725C494.205 113.285 494.02 112.795 493.98 112.255H496.515C496.545 112.545 496.68 112.78 496.92 112.96C497.16 113.14 497.455 113.23 497.805 113.23C498.125 113.23 498.37 113.17 498.54 113.05C498.72 112.92 498.81 112.755 498.81 112.555C498.81 112.315 498.685 112.14 498.435 112.03C498.185 111.91 497.78 111.78 497.22 111.64C496.62 111.5 496.12 111.355 495.72 111.205C495.32 111.045 494.975 110.8 494.685 110.47C494.395 110.13 494.25 109.675 494.25 109.105C494.25 108.625 494.38 108.19 494.64 107.8C494.91 107.4 495.3 107.085 495.81 106.855C496.33 106.625 496.945 106.51 497.655 106.51C498.705 106.51 499.53 106.77 500.13 107.29C500.74 107.81 501.09 108.5 501.18 109.36H498.81C498.77 109.07 498.64 108.84 498.42 108.67C498.21 108.5 497.93 108.415 497.58 108.415C497.28 108.415 497.05 108.475 496.89 108.595C496.73 108.705 496.65 108.86 496.65 109.06C496.65 109.3 496.775 109.48 497.025 109.6C497.285 109.72 497.685 109.84 498.225 109.96C498.845 110.12 499.35 110.28 499.74 110.44C500.13 110.59 500.47 110.84 500.76 111.19C501.06 111.53 501.215 111.99 501.225 112.57C501.225 113.06 501.085 113.5 500.805 113.89C500.535 114.27 500.14 114.57 499.62 114.79C499.11 115.01 498.515 115.12 497.835 115.12Z" fill="#151515"/>
<path d="M514.813 108.533L517.553 111.273C517.678 111.397 517.847 111.467 518.023 111.467C518.2 111.467 518.369 111.397 518.493 111.273L521.16 108.607" stroke="#6A983C" stroke-width="2.5" stroke-linecap="round" stroke-linejoin="bevel"/>
<line x1="550.5" y1="99" x2="550.5" y2="119" stroke="#D1D1D1"/>
<path d="M581.014 111.341C581.014 112.22 580.695 112.906 580.057 113.398C579.419 113.891 578.553 114.137 577.459 114.137C576.274 114.137 575.363 113.984 574.725 113.679V112.558C575.135 112.731 575.581 112.868 576.064 112.968C576.548 113.068 577.026 113.118 577.5 113.118C578.275 113.118 578.858 112.972 579.25 112.681C579.642 112.384 579.838 111.974 579.838 111.45C579.838 111.104 579.767 110.821 579.626 110.603C579.489 110.379 579.257 110.174 578.929 109.987C578.605 109.8 578.111 109.589 577.445 109.352C576.516 109.019 575.85 108.625 575.449 108.169C575.053 107.713 574.854 107.118 574.854 106.385C574.854 105.615 575.144 105.002 575.723 104.546C576.301 104.09 577.067 103.862 578.02 103.862C579.013 103.862 579.927 104.045 580.761 104.409L580.398 105.421C579.574 105.075 578.771 104.901 577.992 104.901C577.377 104.901 576.896 105.034 576.55 105.298C576.203 105.562 576.03 105.929 576.03 106.398C576.03 106.745 576.094 107.03 576.222 107.253C576.349 107.472 576.563 107.674 576.864 107.861C577.17 108.044 577.634 108.246 578.259 108.47C579.307 108.843 580.027 109.244 580.419 109.673C580.815 110.101 581.014 110.657 581.014 111.341ZM586.052 114.137C584.944 114.137 584.069 113.799 583.427 113.125C582.789 112.451 582.47 111.514 582.47 110.315C582.47 109.108 582.766 108.148 583.358 107.438C583.955 106.727 584.755 106.371 585.758 106.371C586.697 106.371 587.439 106.681 587.986 107.301C588.533 107.916 588.807 108.729 588.807 109.741V110.459H583.646C583.668 111.339 583.889 112.006 584.309 112.462C584.732 112.918 585.327 113.146 586.093 113.146C586.899 113.146 587.697 112.977 588.485 112.64V113.651C588.084 113.825 587.704 113.948 587.344 114.021C586.988 114.098 586.558 114.137 586.052 114.137ZM585.744 107.321C585.143 107.321 584.662 107.517 584.302 107.909C583.946 108.301 583.737 108.843 583.673 109.536H587.59C587.59 108.821 587.43 108.274 587.111 107.896C586.792 107.513 586.337 107.321 585.744 107.321ZM595.355 114L595.13 112.934H595.075C594.701 113.403 594.328 113.722 593.954 113.891C593.585 114.055 593.122 114.137 592.566 114.137C591.824 114.137 591.24 113.945 590.816 113.562C590.397 113.18 590.188 112.635 590.188 111.929C590.188 110.416 591.397 109.623 593.817 109.55L595.089 109.509V109.044C595.089 108.456 594.961 108.023 594.706 107.745C594.455 107.463 594.052 107.321 593.496 107.321C592.872 107.321 592.165 107.513 591.377 107.896L591.028 107.027C591.397 106.827 591.801 106.67 592.238 106.556C592.68 106.442 593.122 106.385 593.564 106.385C594.458 106.385 595.118 106.583 595.547 106.979C595.98 107.376 596.196 108.012 596.196 108.887V114H595.355ZM592.792 113.2C593.498 113.2 594.052 113.007 594.453 112.619C594.859 112.232 595.062 111.689 595.062 110.992V110.315L593.927 110.363C593.024 110.395 592.373 110.536 591.972 110.787C591.575 111.033 591.377 111.418 591.377 111.942C591.377 112.353 591.5 112.665 591.746 112.879C591.997 113.093 592.345 113.2 592.792 113.2ZM601.959 106.371C602.292 106.371 602.59 106.398 602.854 106.453L602.697 107.506C602.387 107.438 602.114 107.403 601.877 107.403C601.271 107.403 600.751 107.649 600.318 108.142C599.89 108.634 599.676 109.247 599.676 109.98V114H598.541V106.508H599.478L599.607 107.896H599.662C599.94 107.408 600.275 107.032 600.667 106.768C601.059 106.503 601.49 106.371 601.959 106.371ZM607.25 114.137C606.165 114.137 605.325 113.804 604.728 113.139C604.135 112.469 603.839 111.523 603.839 110.302C603.839 109.049 604.14 108.08 604.741 107.396C605.347 106.713 606.209 106.371 607.325 106.371C607.685 106.371 608.045 106.41 608.405 106.487C608.765 106.565 609.048 106.656 609.253 106.761L608.904 107.725C608.654 107.624 608.38 107.542 608.084 107.479C607.788 107.41 607.526 107.376 607.298 107.376C605.776 107.376 605.015 108.347 605.015 110.288C605.015 111.209 605.199 111.915 605.568 112.407C605.942 112.899 606.493 113.146 607.223 113.146C607.847 113.146 608.487 113.011 609.144 112.742V113.747C608.642 114.007 608.011 114.137 607.25 114.137ZM616.055 114V109.153C616.055 108.543 615.916 108.087 615.638 107.786C615.36 107.485 614.924 107.335 614.332 107.335C613.544 107.335 612.967 107.549 612.603 107.978C612.243 108.406 612.062 109.108 612.062 110.083V114H610.928V103.363H612.062V106.583C612.062 106.97 612.044 107.292 612.008 107.547H612.076C612.299 107.187 612.616 106.904 613.026 106.699C613.441 106.49 613.913 106.385 614.441 106.385C615.357 106.385 616.043 106.604 616.499 107.041C616.959 107.474 617.189 108.164 617.189 109.112V114H616.055ZM629.672 106.918C629.672 107.93 629.326 108.709 628.633 109.256C627.945 109.798 626.958 110.069 625.673 110.069H624.497V114H623.335V104.006H625.926C628.423 104.006 629.672 104.977 629.672 106.918ZM624.497 109.071H625.543C626.573 109.071 627.318 108.905 627.778 108.572C628.239 108.24 628.469 107.706 628.469 106.973C628.469 106.312 628.252 105.82 627.819 105.496C627.386 105.173 626.712 105.011 625.796 105.011H624.497V109.071ZM635.018 106.371C635.35 106.371 635.649 106.398 635.913 106.453L635.756 107.506C635.446 107.438 635.173 107.403 634.936 107.403C634.329 107.403 633.81 107.649 633.377 108.142C632.949 108.634 632.734 109.247 632.734 109.98V114H631.6V106.508H632.536L632.666 107.896H632.721C632.999 107.408 633.334 107.032 633.726 106.768C634.118 106.503 634.548 106.371 635.018 106.371ZM643.781 110.247C643.781 111.468 643.474 112.423 642.858 113.111C642.243 113.795 641.393 114.137 640.309 114.137C639.639 114.137 639.044 113.979 638.524 113.665C638.005 113.351 637.604 112.899 637.321 112.312C637.039 111.724 636.897 111.035 636.897 110.247C636.897 109.026 637.203 108.076 637.813 107.396C638.424 106.713 639.272 106.371 640.356 106.371C641.405 106.371 642.236 106.72 642.852 107.417C643.471 108.114 643.781 109.058 643.781 110.247ZM638.073 110.247C638.073 111.204 638.265 111.933 638.647 112.435C639.03 112.936 639.593 113.187 640.336 113.187C641.079 113.187 641.642 112.938 642.024 112.441C642.412 111.94 642.605 111.209 642.605 110.247C642.605 109.295 642.412 108.572 642.024 108.08C641.642 107.583 641.074 107.335 640.322 107.335C639.579 107.335 639.019 107.579 638.641 108.066C638.262 108.554 638.073 109.281 638.073 110.247ZM650.877 112.995H650.815C650.291 113.756 649.507 114.137 648.464 114.137C647.484 114.137 646.721 113.802 646.174 113.132C645.632 112.462 645.36 111.509 645.36 110.274C645.36 109.039 645.634 108.08 646.181 107.396C646.728 106.713 647.489 106.371 648.464 106.371C649.48 106.371 650.259 106.74 650.802 107.479H650.891L650.843 106.938L650.815 106.412V103.363H651.95V114H651.027L650.877 112.995ZM648.607 113.187C649.382 113.187 649.943 112.977 650.289 112.558C650.64 112.134 650.815 111.452 650.815 110.514V110.274C650.815 109.213 650.638 108.456 650.282 108.005C649.931 107.549 649.368 107.321 648.594 107.321C647.928 107.321 647.418 107.581 647.062 108.101C646.712 108.616 646.536 109.345 646.536 110.288C646.536 111.245 646.712 111.967 647.062 112.455C647.413 112.943 647.928 113.187 648.607 113.187ZM655.43 106.508V111.368C655.43 111.979 655.569 112.435 655.847 112.735C656.125 113.036 656.56 113.187 657.152 113.187C657.936 113.187 658.508 112.972 658.868 112.544C659.233 112.116 659.415 111.416 659.415 110.445V106.508H660.55V114H659.613L659.449 112.995H659.388C659.155 113.364 658.832 113.647 658.417 113.843C658.007 114.039 657.537 114.137 657.009 114.137C656.097 114.137 655.414 113.92 654.958 113.487C654.507 113.054 654.281 112.362 654.281 111.409V106.508H655.43ZM665.957 114.137C664.872 114.137 664.032 113.804 663.435 113.139C662.842 112.469 662.546 111.523 662.546 110.302C662.546 109.049 662.847 108.08 663.448 107.396C664.054 106.713 664.916 106.371 666.032 106.371C666.392 106.371 666.752 106.41 667.112 106.487C667.472 106.565 667.755 106.656 667.96 106.761L667.611 107.725C667.361 107.624 667.087 107.542 666.791 107.479C666.495 107.41 666.233 107.376 666.005 107.376C664.483 107.376 663.722 108.347 663.722 110.288C663.722 111.209 663.906 111.915 664.275 112.407C664.649 112.899 665.201 113.146 665.93 113.146C666.554 113.146 667.194 113.011 667.851 112.742V113.747C667.349 114.007 666.718 114.137 665.957 114.137ZM672.055 113.2C672.255 113.2 672.449 113.187 672.636 113.159C672.823 113.127 672.971 113.095 673.08 113.063V113.932C672.957 113.991 672.775 114.039 672.533 114.075C672.296 114.116 672.082 114.137 671.891 114.137C670.441 114.137 669.717 113.373 669.717 111.847V107.39H668.644V106.843L669.717 106.371L670.195 104.771H670.852V106.508H673.025V107.39H670.852V111.799C670.852 112.25 670.959 112.596 671.173 112.838C671.387 113.079 671.681 113.2 672.055 113.2ZM679.417 111.956C679.417 112.653 679.157 113.191 678.638 113.569C678.118 113.948 677.389 114.137 676.45 114.137C675.457 114.137 674.682 113.979 674.126 113.665V112.612C674.486 112.795 674.871 112.938 675.281 113.043C675.696 113.148 676.095 113.2 676.478 113.2C677.07 113.2 677.526 113.107 677.845 112.92C678.164 112.729 678.323 112.439 678.323 112.052C678.323 111.76 678.196 111.512 677.94 111.307C677.69 111.097 677.198 110.851 676.464 110.568C675.767 110.309 675.27 110.083 674.974 109.892C674.682 109.696 674.463 109.475 674.317 109.229C674.176 108.982 674.105 108.688 674.105 108.347C674.105 107.736 674.354 107.255 674.851 106.904C675.347 106.549 676.029 106.371 676.895 106.371C677.701 106.371 678.49 106.535 679.26 106.863L678.856 107.786C678.104 107.476 677.423 107.321 676.812 107.321C676.275 107.321 675.869 107.406 675.596 107.574C675.322 107.743 675.186 107.975 675.186 108.271C675.186 108.472 675.236 108.643 675.336 108.784C675.441 108.925 675.607 109.06 675.835 109.188C676.063 109.315 676.5 109.5 677.147 109.741C678.036 110.065 678.635 110.391 678.945 110.719C679.26 111.047 679.417 111.459 679.417 111.956ZM682.459 112.373L682.562 112.53C682.443 112.986 682.272 113.515 682.049 114.116C681.826 114.722 681.593 115.285 681.352 115.805H680.497C680.62 115.331 680.755 114.745 680.9 114.048C681.051 113.351 681.156 112.792 681.215 112.373H682.459ZM691.332 114.137C690.247 114.137 689.407 113.804 688.81 113.139C688.217 112.469 687.921 111.523 687.921 110.302C687.921 109.049 688.222 108.08 688.823 107.396C689.429 106.713 690.291 106.371 691.407 106.371C691.767 106.371 692.127 106.41 692.487 106.487C692.847 106.565 693.13 106.656 693.335 106.761L692.986 107.725C692.736 107.624 692.462 107.542 692.166 107.479C691.87 107.41 691.608 107.376 691.38 107.376C689.858 107.376 689.097 108.347 689.097 110.288C689.097 111.209 689.281 111.915 689.65 112.407C690.024 112.899 690.576 113.146 691.305 113.146C691.929 113.146 692.569 113.011 693.226 112.742V113.747C692.724 114.007 692.093 114.137 691.332 114.137ZM699.617 114L699.392 112.934H699.337C698.963 113.403 698.59 113.722 698.216 113.891C697.847 114.055 697.384 114.137 696.828 114.137C696.085 114.137 695.502 113.945 695.078 113.562C694.659 113.18 694.449 112.635 694.449 111.929C694.449 110.416 695.659 109.623 698.079 109.55L699.351 109.509V109.044C699.351 108.456 699.223 108.023 698.968 107.745C698.717 107.463 698.314 107.321 697.758 107.321C697.133 107.321 696.427 107.513 695.639 107.896L695.29 107.027C695.659 106.827 696.062 106.67 696.5 106.556C696.942 106.442 697.384 106.385 697.826 106.385C698.719 106.385 699.38 106.583 699.809 106.979C700.242 107.376 700.458 108.012 700.458 108.887V114H699.617ZM697.054 113.2C697.76 113.2 698.314 113.007 698.715 112.619C699.12 112.232 699.323 111.689 699.323 110.992V110.315L698.188 110.363C697.286 110.395 696.634 110.536 696.233 110.787C695.837 111.033 695.639 111.418 695.639 111.942C695.639 112.353 695.762 112.665 696.008 112.879C696.258 113.093 696.607 113.2 697.054 113.2ZM705.223 113.2C705.423 113.2 705.617 113.187 705.804 113.159C705.991 113.127 706.139 113.095 706.248 113.063V113.932C706.125 113.991 705.943 114.039 705.701 114.075C705.464 114.116 705.25 114.137 705.059 114.137C703.609 114.137 702.885 113.373 702.885 111.847V107.39H701.812V106.843L702.885 106.371L703.363 104.771H704.02V106.508H706.193V107.39H704.02V111.799C704.02 112.25 704.127 112.596 704.341 112.838C704.555 113.079 704.849 113.2 705.223 113.2ZM710.917 114.137C709.81 114.137 708.935 113.799 708.292 113.125C707.654 112.451 707.335 111.514 707.335 110.315C707.335 109.108 707.631 108.148 708.224 107.438C708.821 106.727 709.62 106.371 710.623 106.371C711.562 106.371 712.305 106.681 712.852 107.301C713.398 107.916 713.672 108.729 713.672 109.741V110.459H708.511C708.534 111.339 708.755 112.006 709.174 112.462C709.598 112.918 710.192 113.146 710.958 113.146C711.765 113.146 712.562 112.977 713.351 112.64V113.651C712.95 113.825 712.569 113.948 712.209 114.021C711.854 114.098 711.423 114.137 710.917 114.137ZM710.609 107.321C710.008 107.321 709.527 107.517 709.167 107.909C708.812 108.301 708.602 108.843 708.538 109.536H712.455C712.455 108.821 712.296 108.274 711.977 107.896C711.658 107.513 711.202 107.321 710.609 107.321ZM721.745 106.508V107.226L720.357 107.39C720.485 107.549 720.599 107.759 720.699 108.019C720.799 108.274 720.85 108.563 720.85 108.887C720.85 109.62 720.599 110.206 720.098 110.644C719.596 111.081 718.908 111.3 718.033 111.3C717.81 111.3 717.6 111.282 717.404 111.245C716.921 111.5 716.68 111.822 716.68 112.209C716.68 112.414 716.764 112.567 716.933 112.667C717.101 112.763 717.391 112.811 717.801 112.811H719.127C719.938 112.811 720.56 112.981 720.993 113.323C721.431 113.665 721.649 114.162 721.649 114.813C721.649 115.643 721.317 116.274 720.651 116.707C719.986 117.145 719.015 117.363 717.739 117.363C716.759 117.363 716.003 117.181 715.47 116.816C714.941 116.452 714.677 115.937 714.677 115.271C714.677 114.816 714.823 114.422 715.114 114.089C715.406 113.756 715.816 113.531 716.345 113.412C716.153 113.326 715.992 113.191 715.859 113.009C715.732 112.826 715.668 112.615 715.668 112.373C715.668 112.1 715.741 111.86 715.887 111.655C716.033 111.45 716.263 111.252 716.577 111.061C716.19 110.901 715.873 110.63 715.627 110.247C715.385 109.864 715.265 109.427 715.265 108.935C715.265 108.114 715.511 107.483 716.003 107.041C716.495 106.594 717.192 106.371 718.095 106.371C718.487 106.371 718.84 106.417 719.154 106.508H721.745ZM715.771 115.258C715.771 115.663 715.941 115.971 716.283 116.181C716.625 116.39 717.115 116.495 717.753 116.495C718.705 116.495 719.41 116.352 719.865 116.064C720.326 115.782 720.556 115.397 720.556 114.909C720.556 114.504 720.43 114.221 720.18 114.062C719.929 113.907 719.457 113.829 718.765 113.829H717.404C716.889 113.829 716.488 113.952 716.201 114.198C715.914 114.444 715.771 114.798 715.771 115.258ZM716.386 108.907C716.386 109.431 716.534 109.828 716.83 110.097C717.126 110.366 717.539 110.5 718.067 110.5C719.175 110.5 719.729 109.962 719.729 108.887C719.729 107.761 719.168 107.198 718.047 107.198C717.514 107.198 717.104 107.342 716.816 107.629C716.529 107.916 716.386 108.342 716.386 108.907ZM729.75 110.247C729.75 111.468 729.442 112.423 728.827 113.111C728.212 113.795 727.362 114.137 726.277 114.137C725.607 114.137 725.013 113.979 724.493 113.665C723.974 113.351 723.573 112.899 723.29 112.312C723.007 111.724 722.866 111.035 722.866 110.247C722.866 109.026 723.172 108.076 723.782 107.396C724.393 106.713 725.241 106.371 726.325 106.371C727.373 106.371 728.205 106.72 728.82 107.417C729.44 108.114 729.75 109.058 729.75 110.247ZM724.042 110.247C724.042 111.204 724.233 111.933 724.616 112.435C724.999 112.936 725.562 113.187 726.305 113.187C727.048 113.187 727.61 112.938 727.993 112.441C728.381 111.94 728.574 111.209 728.574 110.247C728.574 109.295 728.381 108.572 727.993 108.08C727.61 107.583 727.043 107.335 726.291 107.335C725.548 107.335 724.988 107.579 724.609 108.066C724.231 108.554 724.042 109.281 724.042 110.247ZM735.164 106.371C735.497 106.371 735.795 106.398 736.06 106.453L735.902 107.506C735.592 107.438 735.319 107.403 735.082 107.403C734.476 107.403 733.956 107.649 733.523 108.142C733.095 108.634 732.881 109.247 732.881 109.98V114H731.746V106.508H732.683L732.812 107.896H732.867C733.145 107.408 733.48 107.032 733.872 106.768C734.264 106.503 734.695 106.371 735.164 106.371ZM738.596 114H737.461V106.508H738.596V114ZM737.365 104.478C737.365 104.218 737.429 104.029 737.557 103.91C737.684 103.787 737.844 103.726 738.035 103.726C738.217 103.726 738.375 103.787 738.507 103.91C738.639 104.033 738.705 104.222 738.705 104.478C738.705 104.733 738.639 104.924 738.507 105.052C738.375 105.175 738.217 105.236 738.035 105.236C737.844 105.236 737.684 105.175 737.557 105.052C737.429 104.924 737.365 104.733 737.365 104.478ZM744.167 114.137C743.06 114.137 742.185 113.799 741.542 113.125C740.904 112.451 740.585 111.514 740.585 110.315C740.585 109.108 740.881 108.148 741.474 107.438C742.071 106.727 742.87 106.371 743.873 106.371C744.812 106.371 745.555 106.681 746.102 107.301C746.648 107.916 746.922 108.729 746.922 109.741V110.459H741.761C741.784 111.339 742.005 112.006 742.424 112.462C742.848 112.918 743.442 113.146 744.208 113.146C745.015 113.146 745.812 112.977 746.601 112.64V113.651C746.2 113.825 745.819 113.948 745.459 114.021C745.104 114.098 744.673 114.137 744.167 114.137ZM743.859 107.321C743.258 107.321 742.777 107.517 742.417 107.909C742.062 108.301 741.852 108.843 741.788 109.536H745.705C745.705 108.821 745.546 108.274 745.227 107.896C744.908 107.513 744.452 107.321 743.859 107.321ZM753.696 111.956C753.696 112.653 753.437 113.191 752.917 113.569C752.397 113.948 751.668 114.137 750.729 114.137C749.736 114.137 748.961 113.979 748.405 113.665V112.612C748.765 112.795 749.15 112.938 749.561 113.043C749.975 113.148 750.374 113.2 750.757 113.2C751.349 113.2 751.805 113.107 752.124 112.92C752.443 112.729 752.603 112.439 752.603 112.052C752.603 111.76 752.475 111.512 752.22 111.307C751.969 111.097 751.477 110.851 750.743 110.568C750.046 110.309 749.549 110.083 749.253 109.892C748.961 109.696 748.743 109.475 748.597 109.229C748.455 108.982 748.385 108.688 748.385 108.347C748.385 107.736 748.633 107.255 749.13 106.904C749.627 106.549 750.308 106.371 751.174 106.371C751.98 106.371 752.769 106.535 753.539 106.863L753.136 107.786C752.384 107.476 751.702 107.321 751.092 107.321C750.554 107.321 750.148 107.406 749.875 107.574C749.602 107.743 749.465 107.975 749.465 108.271C749.465 108.472 749.515 108.643 749.615 108.784C749.72 108.925 749.886 109.06 750.114 109.188C750.342 109.315 750.78 109.5 751.427 109.741C752.315 110.065 752.915 110.391 753.225 110.719C753.539 111.047 753.696 111.459 753.696 111.956ZM759.021 113.275C759.021 112.97 759.09 112.74 759.227 112.585C759.368 112.425 759.568 112.346 759.828 112.346C760.092 112.346 760.298 112.425 760.443 112.585C760.594 112.74 760.669 112.97 760.669 113.275C760.669 113.572 760.594 113.799 760.443 113.959C760.293 114.118 760.088 114.198 759.828 114.198C759.596 114.198 759.402 114.128 759.247 113.986C759.097 113.84 759.021 113.604 759.021 113.275ZM762.754 113.275C762.754 112.97 762.822 112.74 762.959 112.585C763.1 112.425 763.301 112.346 763.561 112.346C763.825 112.346 764.03 112.425 764.176 112.585C764.326 112.74 764.401 112.97 764.401 113.275C764.401 113.572 764.326 113.799 764.176 113.959C764.025 114.118 763.82 114.198 763.561 114.198C763.328 114.198 763.134 114.128 762.979 113.986C762.829 113.84 762.754 113.604 762.754 113.275ZM766.486 113.275C766.486 112.97 766.555 112.74 766.691 112.585C766.833 112.425 767.033 112.346 767.293 112.346C767.557 112.346 767.762 112.425 767.908 112.585C768.059 112.74 768.134 112.97 768.134 113.275C768.134 113.572 768.059 113.799 767.908 113.959C767.758 114.118 767.553 114.198 767.293 114.198C767.061 114.198 766.867 114.128 766.712 113.986C766.562 113.84 766.486 113.604 766.486 113.275Z" fill="#A9A9A9"/>
<path d="M857.193 112.433C859.77 112.433 861.86 110.344 861.86 107.767C861.86 105.189 859.77 103.1 857.193 103.1C854.616 103.1 852.526 105.189 852.526 107.767C852.526 110.344 854.616 112.433 857.193 112.433Z" stroke="#151515" stroke-width="1.5" stroke-linecap="round" stroke-linejoin="bevel"/>
<path d="M853.813 111.24L850.687 114.367" stroke="#151515" stroke-width="1.5" stroke-linecap="round" stroke-linejoin="bevel"/>
<path d="M48.8717 114.761H55.4051V111.239H48.8717V107.522H56.857V104H45V121.609H48.8717V114.761Z" fill="#151515"/>
<path d="M58.1832 115.005V121.609H61.8129V115.005C61.8129 112.976 63.4342 111.337 65.4426 111.337V108.011H64.9586C60.9418 108.011 58.1832 111.141 58.1832 115.005Z" fill="#151515"/>
<path d="M73.5574 108.011C69.5406 108.011 66.298 111.141 66.298 115.005C66.298 118.87 69.5406 122 73.5574 122C76.7516 122 79.4618 120.019 80.4297 117.255H76.4128C75.7595 118.111 74.7189 118.674 73.5574 118.674C71.9846 118.674 70.6779 117.671 70.1455 116.277H80.6959C80.7685 115.861 80.8169 115.446 80.8169 115.005C80.8169 111.141 77.5743 108.011 73.5574 108.011ZM70.1455 113.734C70.6779 112.34 71.9846 111.337 73.5574 111.337C75.1061 111.337 76.437 112.34 76.9694 113.734H70.1455Z" fill="#151515"/>
<path d="M88.7453 113.832C87.3418 113.66 85.7447 113.049 85.7447 112.266C85.7447 111.386 86.4949 111.092 87.2934 111.092C88.0919 111.092 88.8421 111.386 88.8421 112.511H92.4718C92.4718 109.674 90.1004 108.011 87.2934 108.011C84.4864 108.011 82.115 109.674 82.115 112.364C82.115 114.443 84.559 116.008 87.0998 116.326C88.1887 116.473 88.9873 117.035 88.9873 117.647C88.9873 118.503 88.0919 118.918 87.2934 118.918C86.4949 118.918 85.5995 118.625 85.5995 117.5H81.9698C81.9698 120.337 84.4864 122 87.2934 122C90.1004 122 92.617 120.337 92.617 117.5C92.617 115.274 90.6569 114.052 88.7453 113.832Z" fill="#151515"/>
<path d="M101.282 108.011C100.072 108.011 98.9833 108.451 98.1364 109.185V104H94.5067V121.609H98.1364V114.981C98.1364 112.976 99.2737 111.337 101.282 111.337C103.291 111.337 104.428 112.976 104.428 115.005V121.609H108.058V115.005C108.058 111.141 105.299 108.011 101.282 108.011Z" fill="#151515"/>
<path d="M117.017 108.011C113.001 108.011 110.242 111.141 110.242 115.005V121.609H113.872V115.005C113.872 112.976 115.009 111.337 117.017 111.337C119.026 111.337 120.163 112.976 120.163 115.005V121.609H123.793V115.005C123.793 111.141 121.034 108.011 117.017 108.011Z" fill="#151515"/>
<path d="M132.635 108.011C128.618 108.011 125.375 111.141 125.375 115.005C125.375 118.87 128.618 122 132.635 122C135.829 122 138.539 120.019 139.507 117.255H135.49C134.837 118.111 133.796 118.674 132.635 118.674C131.062 118.674 129.755 117.671 129.223 116.277H139.773C139.846 115.861 139.894 115.446 139.894 115.005C139.894 111.141 136.652 108.011 132.635 108.011ZM129.223 113.734C129.755 112.34 131.062 111.337 132.635 111.337C134.183 111.337 135.514 112.34 136.047 113.734H129.223Z" fill="#151515"/>
<path d="M147.822 113.832C146.419 113.66 144.822 113.049 144.822 112.266C144.822 111.386 145.572 111.092 146.371 111.092C147.169 111.092 147.919 111.386 147.919 112.511H151.549C151.549 109.674 149.178 108.011 146.371 108.011C143.564 108.011 141.192 109.674 141.192 112.364C141.192 114.443 143.636 116.008 146.177 116.326C147.266 116.473 148.064 117.035 148.064 117.647C148.064 118.503 147.169 118.918 146.371 118.918C145.572 118.918 144.677 118.625 144.677 117.5H141.047C141.047 120.337 143.564 122 146.371 122C149.178 122 151.694 120.337 151.694 117.5C151.694 115.274 149.734 114.052 147.822 113.832Z" fill="#151515"/>
<path d="M160.117 108.011C156.1 108.011 152.858 111.141 152.858 115.005C152.858 118.87 156.1 122 160.117 122C163.311 122 166.022 120.019 166.99 117.255H162.973C162.319 118.111 161.279 118.674 160.117 118.674C158.544 118.674 157.238 117.671 156.705 116.277H167.256C167.328 115.861 167.377 115.446 167.377 115.005C167.377 111.141 164.134 108.011 160.117 108.011ZM156.705 113.734C157.238 112.34 158.544 111.337 160.117 111.337C161.666 111.337 162.997 112.34 163.529 113.734H156.705Z" fill="#151515"/>
<path d="M175.596 111.337C176.999 111.337 178.185 112.12 178.814 113.293H182.637C181.839 110.261 178.983 108.011 175.596 108.011C171.579 108.011 168.336 111.141 168.336 115.005C168.336 118.87 171.579 122 175.596 122C178.959 122 181.766 119.799 182.589 116.815H178.693C178.088 117.916 176.951 118.674 175.596 118.674C173.587 118.674 171.966 117.035 171.966 115.005C171.966 112.976 173.587 111.337 175.596 111.337Z" fill="#151515"/>
<path d="M197.929 115.005C197.929 111.141 194.711 108.011 190.718 108.011C186.726 108.011 183.507 111.141 183.507 115.005C183.507 118.87 186.726 122 190.718 122C194.711 122 197.929 118.87 197.929 115.005ZM194.3 115.005C194.3 117.035 192.702 118.674 190.718 118.674C188.734 118.674 187.137 117.035 187.137 115.005C187.137 112.976 188.734 111.337 190.718 111.337C192.702 111.337 194.3 112.976 194.3 115.005Z" fill="#151515"/>
<path d="M215.467 108.011C213.579 108.011 211.885 108.867 210.748 110.236C209.611 108.867 207.917 108.011 206.029 108.011C202.012 108.011 199.496 111.141 199.496 115.005V121.609H203.126V115.005C203.126 112.976 204.021 111.337 206.029 111.337C208.038 111.337 208.933 112.976 208.933 115.005V121.609H212.563V115.005C212.563 112.976 213.458 111.337 215.467 111.337C217.475 111.337 218.37 112.976 218.37 115.005V121.609H222V115.005C222 111.141 219.483 108.011 215.467 108.011Z" fill="#151515"/>
</g>
<defs>
<filter id="filter0_d_15_1660" x="1181" y="108" width="24" height="24" filterUnits="userSpaceOnUse" color-interpolation-filters="sRGB">
<feFlood flood-opacity="0" result="BackgroundImageFix"/>
<feColorMatrix in="SourceAlpha" type="matrix" values="0 0 0 0 0 0 0 0 0 0 0 0 0 0 0 0 0 0 127 0" result="hardAlpha"/>
<feOffset dy="2"/>
<feGaussianBlur stdDeviation="2"/>
<feColorMatrix type="matrix" values="0 0 0 0 0 0 0 0 0 0 0 0 0 0 0 0 0 0 0.15 0"/>
<feBlend mode="normal" in2="BackgroundImageFix" result="effect1_dropShadow_15_1660"/>
<feBlend mode="normal" in="SourceGraphic" in2="effect1_dropShadow_15_1660" result="shape"/>
</filter>
<clipPath id="clip0_15_1660">
<rect width="375" height="16" fill="white" transform="translate(45 16)"/>
</clipPath>
<clipPath id="clip1_15_1660">
<rect width="197" height="16" fill="white" transform="translate(1018 16)"/>
</clipPath>
<clipPath id="clip2_15_1660">
<rect width="1170" height="50" fill="white" transform="translate(45 88)"/>
</clipPath>
</defs>
</svg>
